<svg width="100" height="20" viewBox="0 0 100 20" fill="none" xmlns="http://www.w3.org/2000/svg">
<path d="M9.52447 1.46353C9.67415 1.00287 10.3259 1.00287 10.4755 1.46353L12.1329 6.56434C12.1998 6.77035 12.3918 6.90983 12.6084 6.90983H17.9717C18.4561 6.90983 18.6575 7.52964 18.2656 7.81434L13.9266 10.9668C13.7514 11.0941 13.678 11.3198 13.745 11.5258L15.4023 16.6266C15.552 17.0873 15.0248 17.4704 14.6329 17.1857L10.2939 14.0332C10.1186 13.9059 9.88135 13.9059 9.70611 14.0332L5.3671 17.1857C4.97524 17.4704 4.448 17.0873 4.59768 16.6266L6.25503 11.5258C6.32197 11.3198 6.24864 11.0941 6.07339 10.9668L1.73438 7.81434C1.34253 7.52964 1.54392 6.90983 2.02828 6.90983H7.39159C7.6082 6.90983 7.80018 6.77035 7.86712 6.56434L9.52447 1.46353Z" fill="#FAAD14"/>
<path d="M29.5245 1.46353C29.6741 1.00287 30.3259 1.00287 30.4755 1.46353L32.1329 6.56434C32.1998 6.77035 32.3918 6.90983 32.6084 6.90983H37.9717C38.4561 6.90983 38.6575 7.52964 38.2656 7.81434L33.9266 10.9668C33.7514 11.0941 33.678 11.3198 33.745 11.5258L35.4023 16.6266C35.552 17.0873 35.0248 17.4704 34.6329 17.1857L30.2939 14.0332C30.1186 13.9059 29.8814 13.9059 29.7061 14.0332L25.3671 17.1857C24.9752 17.4704 24.448 17.0873 24.5977 16.6266L26.255 11.5258C26.322 11.3198 26.2486 11.0941 26.0734 10.9668L21.7344 7.81434C21.3425 7.52964 21.5439 6.90983 22.0283 6.90983H27.3916C27.6082 6.90983 27.8002 6.77035 27.8671 6.56434L29.5245 1.46353Z" fill="#FAAD14"/>
<path d="M49.5245 1.46353C49.6741 1.00287 50.3259 1.00287 50.4755 1.46353L52.1329 6.56434C52.1998 6.77035 52.3918 6.90983 52.6084 6.90983H57.9717C58.4561 6.90983 58.6575 7.52964 58.2656 7.81434L53.9266 10.9668C53.7514 11.0941 53.678 11.3198 53.745 11.5258L55.4023 16.6266C55.552 17.0873 55.0248 17.4704 54.6329 17.1857L50.2939 14.0332C50.1186 13.9059 49.8814 13.9059 49.7061 14.0332L45.3671 17.1857C44.9752 17.4704 44.448 17.0873 44.5977 16.6266L46.255 11.5258C46.322 11.3198 46.2486 11.0941 46.0734 10.9668L41.7344 7.81434C41.3425 7.52964 41.5439 6.90983 42.0283 6.90983H47.3916C47.6082 6.90983 47.8002 6.77035 47.8671 6.56434L49.5245 1.46353Z" fill="#FAAD14"/>
<path d="M69.5245 1.46353C69.6741 1.00287 70.3259 1.00287 70.4755 1.46353L72.1329 6.56434C72.1998 6.77035 72.3918 6.90983 72.6084 6.90983H77.9717C78.4561 6.90983 78.6575 7.52964 78.2656 7.81434L73.9266 10.9668C73.7514 11.0941 73.678 11.3198 73.745 11.5258L75.4023 16.6266C75.552 17.0873 75.0248 17.4704 74.6329 17.1857L70.2939 14.0332C70.1186 13.9059 69.8814 13.9059 69.7061 14.0332L65.3671 17.1857C64.9752 17.4704 64.448 17.0873 64.5977 16.6266L66.255 11.5258C66.322 11.3198 66.2486 11.0941 66.0734 10.9668L61.7344 7.81434C61.3425 7.52964 61.5439 6.90983 62.0283 6.90983H67.3916C67.6082 6.90983 67.8002 6.77035 67.8671 6.56434L69.5245 1.46353Z" fill="#FAAD14"/>
<path d="M89.5245 1.46353C89.6741 1.00287 90.3259 1.00287 90.4755 1.46353L92.1329 6.56434C92.1998 6.77035 92.3918 6.90983 92.6084 6.90983H97.9717C98.4561 6.90983 98.6575 7.52964 98.2656 7.81434L93.9266 10.9668C93.7514 11.0941 93.678 11.3198 93.745 11.5258L95.4023 16.6266C95.552 17.0873 95.0248 17.4704 94.6329 17.1857L90.2939 14.0332C90.1186 13.9059 89.8814 13.9059 89.7061 14.0332L85.3671 17.1857C84.9752 17.4704 84.448 17.0873 84.5977 16.6266L86.255 11.5258C86.322 11.3198 86.2486 11.0941 86.0734 10.9668L81.7344 7.81434C81.3425 7.52964 81.5439 6.90983 82.0283 6.90983H87.3916C87.6082 6.90983 87.8002 6.77035 87.8671 6.56434L89.5245 1.46353Z" fill="#FAAD14"/>
</svg>
