<svg xmlns="http://www.w3.org/2000/svg" width="24" height="24" viewBox="0 0 24 24" fill="none">
<path opacity="0.4" d="M21.49 7.80863V7.81V16.19C21.49 17.9106 20.9791 19.2238 20.0964 20.1064C19.2138 20.9891 17.9006 21.5 16.18 21.5H7.81C6.08945 21.5 4.77634 20.9891 3.89377 20.1054C3.01114 19.2217 2.5 17.9059 2.5 16.18V7.81C2.5 6.08944 3.01093 4.77618 3.89355 3.89355C4.77618 3.01093 6.08944 2.5 7.81 2.5H16.19C17.9107 2.5 19.2237 3.01097 20.105 3.89333C20.9861 4.77559 21.4947 6.08838 21.49 7.80863Z" fill="#FFE8D7" stroke="#FFE8D7"/>
<path d="M10.5 8.31006H6C5.86614 8.31006 5.75 8.19392 5.75 8.06006C5.75 7.9262 5.86614 7.81006 6 7.81006H10.5C10.6339 7.81006 10.75 7.9262 10.75 8.06006C10.75 8.19392 10.6339 8.31006 10.5 8.31006Z" fill="#FFE8D7" stroke="#FFE8D7"/>
<path d="M18 14.3101H13.5C13.3661 14.3101 13.25 14.1939 13.25 14.0601C13.25 13.9262 13.3661 13.8101 13.5 13.8101H18C18.1339 13.8101 18.25 13.9262 18.25 14.0601C18.25 14.1939 18.1339 14.3101 18 14.3101Z" fill="#FFE8D7" stroke="#FFE8D7"/>
<path d="M18 18.0601H13.5C13.3661 18.0601 13.25 17.9439 13.25 17.8101C13.25 17.6762 13.3661 17.5601 13.5 17.5601H18C18.1339 17.5601 18.25 17.6762 18.25 17.8101C18.25 17.9439 18.1339 18.0601 18 18.0601Z" fill="#FFE8D7" stroke="#FFE8D7"/>
<path d="M16.02 7.31006V7.81006H16.52H18C18.1339 7.81006 18.25 7.9262 18.25 8.06006C18.25 8.19392 18.1339 8.31006 18 8.31006H16.52H16.02V8.81006V10.3101C16.02 10.4439 15.9039 10.5601 15.77 10.5601C15.6361 10.5601 15.52 10.4439 15.52 10.3101V8.81006V8.31006H15.02H13.5C13.3661 8.31006 13.25 8.19392 13.25 8.06006C13.25 7.9262 13.3661 7.81006 13.5 7.81006H15.02H15.52V7.31006V5.81006C15.52 5.6762 15.6361 5.56006 15.77 5.56006C15.9039 5.56006 16.02 5.6762 16.02 5.81006V7.31006Z" fill="#FFE8D7" stroke="#FFE8D7"/>
<path d="M8.95639 15.5863L8.60284 15.9399L8.95639 16.2934L10.6764 18.0134C10.7711 18.1082 10.7711 18.2716 10.6764 18.3663C10.6251 18.4176 10.5645 18.4399 10.4999 18.4399C10.4354 18.4399 10.3748 18.4176 10.3235 18.3663L8.60349 16.6463L8.24994 16.2928L7.89639 16.6463L6.17639 18.3663C6.1251 18.4176 6.06449 18.4399 5.99994 18.4399C5.9354 18.4399 5.87479 18.4176 5.82349 18.3663C5.72876 18.2716 5.72876 18.1082 5.82349 18.0134L7.5435 16.2934L7.89705 15.9399L7.54349 15.5863L5.82349 13.8663C5.72876 13.7716 5.72876 13.6082 5.82349 13.5134C5.91823 13.4187 6.08165 13.4187 6.17639 13.5134L7.89639 15.2334L8.24994 15.587L8.60349 15.2334L10.3235 13.5134C10.4182 13.4187 10.5817 13.4187 10.6764 13.5134C10.7711 13.6082 10.7711 13.7716 10.6764 13.8663L8.95639 15.5863Z" fill="#FFE8D7" stroke="#FFE8D7"/>
</svg>