<svg xmlns="http://www.w3.org/2000/svg" width="29" height="30" viewBox="0 0 29 30" fill="none">
  <path fill-rule="evenodd" clip-rule="evenodd" d="M0.666504 1.6665C0.666504 1.11422 1.11422 0.666504 1.6665 0.666504H3.98651C5.57261 0.666504 6.89243 1.73331 7.31041 3.15983H23.9732C26.7772 3.15983 28.9193 5.44947 28.7172 8.24528L27.9973 18.245L27.9969 18.2499C27.8105 20.6725 25.7007 22.6532 23.2532 22.6532H9.05316C6.28431 22.6532 4.10042 20.289 4.33673 17.5289C4.33676 17.5285 4.33669 17.5293 4.33673 17.5289L5.44329 4.25012C5.51435 3.40533 4.83974 2.6665 3.98651 2.6665H1.6665C1.11422 2.6665 0.666504 2.21879 0.666504 1.6665ZM7.37442 5.15983L6.32972 17.6962L6.3295 17.6987C6.19328 19.2848 7.44912 20.6532 9.05316 20.6532H23.2532C24.6449 20.6532 25.8945 19.4884 26.0026 18.0987C26.0027 18.098 26.0027 18.0972 26.0028 18.0965L26.7224 8.10136C26.8403 6.4705 25.6225 5.15983 23.9732 5.15983H7.37442Z" fill="#1A1A1A"/>
  <path fill-rule="evenodd" clip-rule="evenodd" d="M20.6667 26C20.2985 26 20 26.2985 20 26.6667C20 27.0349 20.2985 27.3333 20.6667 27.3333C21.0349 27.3333 21.3333 27.0349 21.3333 26.6667C21.3333 26.2985 21.0349 26 20.6667 26ZM18 26.6667C18 25.1939 19.1939 24 20.6667 24C22.1394 24 23.3333 25.1939 23.3333 26.6667C23.3333 28.1394 22.1394 29.3333 20.6667 29.3333C19.1939 29.3333 18 28.1394 18 26.6667Z" fill="#1A1A1A"/>
  <path fill-rule="evenodd" clip-rule="evenodd" d="M9.99967 26C9.63148 26 9.33301 26.2985 9.33301 26.6667C9.33301 27.0349 9.63148 27.3333 9.99967 27.3333C10.3679 27.3333 10.6663 27.0349 10.6663 26.6667C10.6663 26.2985 10.3679 26 9.99967 26ZM7.33301 26.6667C7.33301 25.1939 8.52692 24 9.99967 24C11.4724 24 12.6663 25.1939 12.6663 26.6667C12.6663 28.1394 11.4724 29.3333 9.99967 29.3333C8.52692 29.3333 7.33301 28.1394 7.33301 26.6667Z" fill="#1A1A1A"/>
</svg>