<svg width="25" height="24" viewBox="0 0 25 24" fill="none" xmlns="http://www.w3.org/2000/svg">
<path d="M17.7902 4.13998L17.7202 7.92998C17.7102 8.44998 18.0403 9.13998 18.4603 9.44998L20.9403 11.33C22.5303 12.53 22.2703 14 20.3703 14.6L17.1403 15.61C16.6003 15.78 16.0303 16.37 15.8903 16.92L15.1203 19.86C14.5103 22.18 12.9902 22.41 11.7302 20.37L9.97024 17.52C9.65024 17 8.89024 16.61 8.29024 16.64L4.95028 16.81C2.56028 16.93 1.88027 15.55 3.44027 13.73L5.42025 11.43C5.79025 11 5.96024 10.2 5.79024 9.65999L4.78029 6.42998C4.19029 4.52998 5.25028 3.47999 7.14028 4.09999L10.0903 5.06999C10.5903 5.22999 11.3403 5.11998 11.7603 4.80998L14.8403 2.58998C16.5003 1.38998 17.8302 2.08998 17.7902 4.13998Z" fill="#FC5430"/>
<path opacity="0.4" d="M21.9399 20.4699L18.9098 17.4399C18.6198 17.1499 18.1398 17.1499 17.8498 17.4399C17.5598 17.7299 17.5598 18.2099 17.8498 18.4999L20.8799 21.5299C21.0299 21.6799 21.2198 21.7499 21.4098 21.7499C21.5998 21.7499 21.7899 21.6799 21.9399 21.5299C22.2299 21.2399 22.2299 20.7599 21.9399 20.4699Z" fill="#FC5430"/>
</svg>
