<svg xmlns="http://www.w3.org/2000/svg" width="20" height="20" viewBox="0 0 20 20" fill="none">
<path d="M5.46 14.49C5.57 14.6 5.68 14.7 5.79 14.81L7.6 16.4C7.97 16.71 8.36 17 8.75 17.29C9.89 18.12 11.04 18.78 12.19 19.27C13.34 19.76 14.43 20 15.45 20C16.14 20 16.78 19.87 17.37 19.63C17.38 19.63 17.39 19.62 17.4 19.62C18.01 19.37 18.55 18.98 19.04 18.44C19.33 18.12 19.55 17.78 19.72 17.42C19.76 17.34 19.79 17.26 19.82 17.18L19.82 17.18C19.92 16.9 19.97 16.61 19.97 16.33C19.97 16.05 19.91 15.8 19.81 15.55C19.7 15.3 19.52 15.09 19.26 14.91L15.95 12.56C15.7 12.39 15.47 12.26 15.25 12.17C15.03 12.08 14.83 12.04 14.64 12.04C14.39 12.04 14.16 12.11 13.93 12.25C13.7 12.37 13.46 12.56 13.21 12.81L12.45 13.56C12.34 13.67 12.21 13.73 12.04 13.73C11.95 13.73 11.87 13.72 11.79 13.69C11.72 13.66 11.66 13.63 11.61 13.61C11.4 13.5 11.15 13.34 10.87 13.13L9.04 11.52C8.94 11.42 8.83 11.32 8.73 11.22C8.21 10.69 7.73 10.16 7.28 9.64C6.84 9.12 6.53 8.69 6.35 8.36C6.33 8.3 6.3 8.24 6.27 8.16C6.25 8.08 6.24 8.01 6.24 7.93C6.24 7.77 6.29 7.64 6.4 7.53L7.16 6.74C7.4 6.5 7.59 6.26 7.72 6.03C7.86 5.8 7.93 5.56 7.93 5.32C7.93 5.13 7.88 4.92 7.79 4.71C7.7 4.49 7.57 4.26 7.39 4.01L5.07 0.74C4.89 0.48 4.66 0.3 4.4 0.18C4.15 0.0600001 3.87 0 3.59 0C2.85 0 2.15 0.31 1.51 0.94C0.98 1.44 0.6 2 0.36 2.61C0.12 3.21 0 3.86 0 4.54C0 5.58 0.24 6.67 0.71 7.81C1.19 8.94 1.85 10.08 2.67 11.22C3.5 12.36 4.43 13.45 5.46 14.49Z" fill="#601201"/>
</svg>