<svg width="65" height="170" viewBox="0 0 65 170" fill="none" xmlns="http://www.w3.org/2000/svg">
<g clip-path="url(#clip0_1_30794)">
<path d="M44.0254 169.949L65 169.949L54.5127 159.462L44.0254 169.949Z" fill="#FC5430"/>
<path d="M44.0254 134.411L65 134.411L54.5127 123.923L44.0254 134.411Z" fill="#FC5430"/>
<path d="M44.0254 98.8568L65 98.8568L54.5127 88.3695L44.0254 98.8568Z" fill="#FC5430"/>
<path d="M44.0254 63.3182L65 63.3182L54.5127 52.8309L44.0254 63.3182Z" fill="#FC5430"/>
<path d="M44.0254 27.7797L65 27.7797L54.5127 17.2772L44.0254 27.7797Z" fill="#FC5430"/>
<path d="M0.000507355 152.672L20.9751 152.672L10.4878 142.185L0.000507355 152.672Z" fill="#FC5430"/>
<path d="M0.000507355 117.119L20.9751 117.119L10.4878 106.631L0.000507355 117.119Z" fill="#FC5430"/>
<path d="M0.000507355 81.58L20.9751 81.58L10.4878 71.0927L0.000507355 81.58Z" fill="#FC5430"/>
<path d="M0.000507355 46.0415L20.9751 46.0415L10.4878 35.5542L0.000507355 46.0415Z" fill="#FC5430"/>
<path d="M0.000507355 10.4878L20.9751 10.4878L10.4878 0.000501596L0.000507355 10.4878Z" fill="#FC5430"/>
</g>
<defs>
<clipPath id="clip0_1_30794">
<rect width="65" height="169.949" fill="white" transform="translate(65 169.949) rotate(180)"/>
</clipPath>
</defs>
</svg>
