<svg width="113" height="113" viewBox="0 0 113 113" fill="none" xmlns="http://www.w3.org/2000/svg">
<path d="M110.15 56.65H104.321M108.624 69.5364L102.959 68.1515M104.014 81.8421L98.8481 79.1201M96.613 92.649L92.2443 88.7604M86.8831 101.349L83.5582 96.5246M75.3553 107.458L73.2869 101.967M62.7382 110.583L62.0212 104.755M49.5206 110.559L50.2376 104.73M36.9045 107.382L38.9932 101.899M25.4383 101.253L28.7632 96.4294M15.7558 92.5481L20.1245 88.6596M8.39985 81.7589L13.5653 79.0369M3.82192 69.49L9.48692 68.1051M2.30859 56.2222L8.13781 56.2675M3.913 43.4366L9.56739 44.8649M8.57348 31.2083L13.7188 33.9688M16.0149 20.4574L20.3553 24.3778M25.7457 11.8319L29.0355 16.6803M37.4538 5.70888L39.4812 11.2153M50.1468 2.66675L50.7971 8.50311M63.316 2.79006L62.5546 8.61276M75.8923 6.05062L73.7628 11.5177M87.1867 12.1645L83.8269 16.9639M96.8502 20.9229L92.4536 24.7793M104.198 31.8139L99.0123 34.4973M108.722 44.1794L103.047 45.5208" stroke="#FC5430" stroke-width="4" stroke-linecap="round"/>
</svg>
