<svg width="136" height="137" viewBox="0 0 136 137" fill="none" xmlns="http://www.w3.org/2000/svg">
<path d="M27.254 13.7636C27.67 13.451 28.0896 13.143 28.5129 12.8397C28.6591 12.8849 28.7968 12.9654 28.9125 13.0812L31.3831 15.5534L33.8537 13.0812C34.2331 12.7015 34.8483 12.7015 35.2277 13.0812C35.6071 13.4609 35.6071 14.0764 35.2277 14.4561L32.7571 16.9284L35.2277 19.4006C35.6071 19.7803 35.6071 20.3959 35.2277 20.7756C34.8483 21.1552 34.2331 21.1552 33.8537 20.7756L31.3831 18.3033L28.9125 20.7756C28.5331 21.1552 27.918 21.1552 27.5385 20.7756C27.1591 20.3959 27.1591 19.7803 27.5385 19.4006L30.0091 16.9284L27.5385 14.4561C27.3476 14.265 27.2527 14.0141 27.254 13.7636Z" fill="#FAAD14"/>
<path d="M19.2876 20.7829C19.7391 20.3181 20.1971 19.8597 20.6615 19.408C21.0336 19.7882 21.0312 20.3983 20.6542 20.7756C20.2773 21.1528 19.6676 21.1552 19.2876 20.7829Z" fill="#FAAD14"/>
<path d="M12.7238 28.6396C13.0268 28.216 13.3346 27.796 13.6471 27.3798C13.8974 27.3785 14.1481 27.4734 14.3391 27.6645L16.8097 30.1368L19.2802 27.6645C19.6597 27.2848 20.2748 27.2848 20.6542 27.6645C21.0337 28.0442 21.0337 28.6598 20.6542 29.0394L18.1837 31.5117L20.6542 33.984C21.0337 34.3636 21.0337 34.9792 20.6542 35.3589C20.2748 35.7386 19.6597 35.7386 19.2802 35.3589L16.8097 32.8866L14.3391 35.3589C13.9596 35.7386 13.3445 35.7386 12.9651 35.3589C12.5857 34.9792 12.5857 34.3636 12.9651 33.984L15.4357 31.5117L12.9651 29.0394C12.8493 28.9236 12.7689 28.7859 12.7238 28.6396Z" fill="#FAAD14"/>
<path d="M0.50281 60.3188C0.596651 59.5058 0.704808 58.6973 0.827021 57.8933L2.23619 59.3035L4.70677 56.8312C5.08619 56.4515 5.70135 56.4515 6.08077 56.8312C6.46019 57.2109 6.46019 57.8265 6.08077 58.2061L3.61019 60.6784L6.08077 63.1507C6.46019 63.5303 6.46019 64.1459 6.08077 64.5256C5.70135 64.9053 5.08619 64.9053 4.70677 64.5256L2.23619 62.0533L0.171158 64.1198C0.230666 63.116 0.311916 62.118 0.414444 61.1264L0.862184 60.6784L0.50281 60.3188Z" fill="#FAAD14"/>
<path d="M0.360795 74.76C0.266991 73.7766 0.194102 72.787 0.142578 71.7918L2.23619 73.8868L4.70677 71.4145C5.08619 71.0349 5.70135 71.0349 6.08077 71.4145C6.46019 71.7942 6.46019 72.4098 6.08077 72.7895L3.61019 75.2617L6.08077 77.734C6.46019 78.1137 6.46019 78.7292 6.08077 79.1089C5.70135 79.4886 5.08619 79.4886 4.70677 79.1089L2.23619 76.6367L0.764062 78.1098C0.64634 77.3012 0.542827 76.488 0.453785 75.6704L0.862184 75.2617L0.360795 74.76Z" fill="#FAAD14"/>
<path d="M5.07002 93.9217C4.25573 91.9259 3.5334 89.8828 2.90832 87.7976L4.70677 85.9979C5.08619 85.6182 5.70135 85.6182 6.08077 85.9979C6.46019 86.3776 6.46019 86.9931 6.08077 87.3728L3.61019 89.8451L6.08077 92.3173C6.46019 92.697 6.46019 93.3126 6.08077 93.6923C5.80744 93.9658 5.41177 94.0423 5.07002 93.9217Z" fill="#FAAD14"/>
<path d="M13.206 108.452C13.0335 108.217 12.8624 107.981 12.6929 107.743C12.645 107.446 12.7357 107.13 12.9651 106.901L15.4357 104.428L12.9651 101.956C12.5857 101.576 12.5857 100.961 12.9651 100.581C13.3445 100.202 13.9596 100.202 14.3391 100.581L16.8097 103.053L19.2802 100.581C19.6597 100.202 20.2748 100.202 20.6542 100.581C21.0337 100.961 21.0337 101.576 20.6542 101.956L18.1837 104.428L20.6542 106.901C21.0337 107.28 21.0337 107.896 20.6542 108.276C20.2748 108.655 19.6597 108.655 19.2802 108.276L16.8097 105.803L14.3391 108.276C14.0324 108.582 13.5717 108.641 13.206 108.452Z" fill="#FAAD14"/>
<path d="M20.4158 116.778C19.9536 116.324 19.4979 115.863 19.0487 115.396L19.2802 115.165C19.6597 114.785 20.2748 114.785 20.6542 115.165C21.0337 115.544 21.0337 116.16 20.6542 116.539L20.4158 116.778Z" fill="#FAAD14"/>
<path d="M47.7447 133.181C45.8395 132.585 43.9704 131.907 42.1413 131.152L42.112 131.123C41.7326 130.743 41.7326 130.128 42.112 129.748C42.4914 129.368 43.1066 129.368 43.486 129.748L45.9566 132.22L48.4272 129.748C48.8066 129.368 49.4218 129.368 49.8012 129.748C50.1806 130.128 50.1806 130.743 49.8012 131.123L47.7447 133.181Z" fill="#FAAD14"/>
<path d="M59.7365 135.764C58.9287 135.666 58.1252 135.553 57.3264 135.426L59.1561 133.595L56.6855 131.123C56.3061 130.743 56.3061 130.128 56.6855 129.748C57.0649 129.368 57.6801 129.368 58.0595 129.748L60.5301 132.22L63.0006 129.748C63.3801 129.368 63.9952 129.368 64.3746 129.748C64.7541 130.128 64.7541 130.743 64.3746 131.123L61.9041 133.595L64.3746 136.067C64.4088 136.102 64.44 136.138 64.468 136.175C63.4787 136.124 62.4949 136.051 61.5172 135.958L60.5301 134.97L59.7365 135.764Z" fill="#FAAD14"/>
<path d="M74.0674 136.007C73.1 136.092 72.1267 136.156 71.1481 136.2C71.1805 136.153 71.2174 136.109 71.2589 136.067L73.7295 133.595L71.2589 131.123C70.8795 130.743 70.8795 130.128 71.2589 129.748C71.6384 129.368 72.2535 129.368 72.6329 129.748L75.1035 132.22L77.5741 129.748C77.9535 129.368 78.5687 129.368 78.9481 129.748C79.3275 130.128 79.3275 130.743 78.9481 131.123L76.4775 133.595L78.3725 135.491C77.5691 135.614 76.7611 135.722 75.9487 135.816L75.1035 134.97L74.0674 136.007Z" fill="#FAAD14"/>
<path d="M93.1618 131.483C91.4745 132.154 89.7541 132.759 88.0036 133.296L85.8324 131.123C85.453 130.743 85.453 130.128 85.8324 129.748C86.2118 129.368 86.827 129.368 87.2064 129.748L89.677 132.22L92.1476 129.748C92.527 129.368 93.1422 129.368 93.5216 129.748C93.901 130.128 93.901 130.743 93.5216 131.123L93.1618 131.483Z" fill="#FAAD14"/>
<path d="M116.832 115.643C116.38 116.108 115.922 116.566 115.458 117.018L114.979 116.539C114.6 116.16 114.6 115.544 114.979 115.165C115.359 114.785 115.974 114.785 116.353 115.165L116.832 115.643Z" fill="#FAAD14"/>
<path d="M133.098 88.1706C132.562 89.9222 131.957 91.6438 131.287 93.3322L130.927 93.6923C130.547 94.0719 129.932 94.0719 129.553 93.6923C129.173 93.3126 129.173 92.697 129.553 92.3173L132.023 89.8451L129.553 87.3728C129.173 86.9931 129.173 86.3776 129.553 85.9979C129.932 85.6182 130.547 85.6182 130.927 85.9979L133.098 88.1706Z" fill="#FAAD14"/>
<path d="M135.617 76.1075C135.523 76.9204 135.415 77.729 135.292 78.5329L133.397 76.6367L130.927 79.1089C130.547 79.4886 129.932 79.4886 129.553 79.1089C129.173 78.7292 129.173 78.1137 129.553 77.734L132.023 75.2617L129.553 72.7895C129.173 72.4098 129.173 71.7942 129.553 71.4145C129.932 71.0349 130.547 71.0349 130.927 71.4145L133.397 73.8868L135.868 71.4145C135.909 71.373 135.954 71.336 136 71.3036C135.957 72.2829 135.892 73.2568 135.807 74.2249L134.771 75.2617L135.617 76.1075Z" fill="#FAAD14"/>
<path d="M135.759 61.6662C135.852 62.6446 135.924 63.629 135.976 64.619C135.938 64.5909 135.902 64.5598 135.868 64.5256L133.397 62.0533L130.927 64.5256C130.547 64.9053 129.932 64.9053 129.553 64.5256C129.173 64.1459 129.173 63.5303 129.553 63.1507L132.023 60.6784L129.553 58.2061C129.173 57.8265 129.173 57.2109 129.553 56.8312C129.932 56.4515 130.547 56.4515 130.927 56.8312L133.397 59.3035L135.227 57.4726C135.354 58.2719 135.466 59.0759 135.565 59.8843L134.771 60.6784L135.759 61.6662Z" fill="#FAAD14"/>
<path d="M130.956 42.2772C131.711 44.1075 132.388 45.9779 132.983 47.8844L130.927 49.9422C130.547 50.3219 129.932 50.3219 129.553 49.9422C129.173 49.5626 129.173 48.947 129.553 48.5673L132.023 46.0951L129.553 43.6228C129.173 43.2431 129.173 42.6275 129.553 42.2479C129.932 41.8682 130.547 41.8682 130.927 42.2479L130.956 42.2772Z" fill="#FAAD14"/>
<path d="M115.211 19.169C115.678 19.6184 116.138 20.0745 116.592 20.537L116.353 20.7756C115.974 21.1552 115.359 21.1552 114.979 20.7756C114.6 20.3959 114.6 19.7803 114.979 19.4006L115.211 19.169Z" fill="#FAAD14"/>
<path d="M107.563 12.8088C107.8 12.9785 108.037 13.1496 108.271 13.3222C108.461 13.6882 108.402 14.1492 108.095 14.4561L105.624 16.9284L108.095 19.4006C108.474 19.7803 108.474 20.3959 108.095 20.7756C107.716 21.1552 107.1 21.1552 106.721 20.7756L104.25 18.3033L101.78 20.7756C101.4 21.1552 100.785 21.1552 100.406 20.7756C100.026 20.3959 100.026 19.7803 100.406 19.4006L102.876 16.9284L100.406 14.4561C100.026 14.0764 100.026 13.4609 100.406 13.0812C100.785 12.7015 101.4 12.7015 101.78 13.0812L104.25 15.5534L106.721 13.0812C106.95 12.8517 107.266 12.7609 107.563 12.8088Z" fill="#FAAD14"/>
<path d="M87.6309 3.01762C89.7147 3.64312 91.7564 4.36593 93.7509 5.18078C93.8713 5.52276 93.7949 5.9187 93.5216 6.19222C93.1422 6.57189 92.527 6.57189 92.1476 6.19222L89.677 3.71996L87.2064 6.19222C86.827 6.57189 86.2118 6.57189 85.8324 6.19222C85.453 5.81254 85.453 5.19696 85.8324 4.81728L87.6309 3.01762Z" fill="#FAAD14"/>
<path d="M75.5119 0.561417C76.3289 0.65052 77.1416 0.754103 77.9496 0.871905L76.4775 2.34503L78.9481 4.81728C79.3275 5.19696 79.3275 5.81254 78.9481 6.19222C78.5687 6.57189 77.9535 6.57189 77.5741 6.19222L75.1035 3.71996L72.6329 6.19222C72.2535 6.57189 71.6384 6.57189 71.2589 6.19222C70.8795 5.81254 70.8795 5.19696 71.2589 4.81728L73.7295 2.34503L71.6359 0.25C72.6305 0.301558 73.6193 0.374497 74.6021 0.468365L75.1035 0.970094L75.5119 0.561417Z" fill="#FAAD14"/>
<path d="M60.9778 0.52205C61.9687 0.419453 62.966 0.338148 63.9691 0.278599L61.9041 2.34503L64.3746 4.81728C64.7541 5.19696 64.7541 5.81254 64.3746 6.19222C63.9952 6.57189 63.3801 6.57189 63.0006 6.19222L60.5301 3.71996L58.0595 6.19222C57.6801 6.57189 57.0649 6.57189 56.6855 6.19222C56.3061 5.81254 56.3061 5.19696 56.6855 4.81728L59.1561 2.34503L57.7469 0.934906C58.5503 0.812611 59.3583 0.704381 60.1707 0.610476L60.5301 0.970094L60.9778 0.52205Z" fill="#FAAD14"/>
<path d="M48.1157 3.13069C47.4191 3.3442 46.7272 3.5686 46.0403 3.8037L48.4272 6.19222C48.8066 6.57189 49.4218 6.57189 49.8012 6.19222C50.1806 5.81254 50.1806 5.19696 49.8012 4.81728L48.1157 3.13069Z" fill="#FAAD14"/>
<path d="M45.785 3.89162L43.486 6.19222C43.1066 6.57189 42.4914 6.57189 42.112 6.19222C41.8962 5.97629 41.8032 5.68407 41.8328 5.40233C43.1303 4.85919 44.4482 4.35512 45.785 3.89162Z" fill="#FAAD14"/>
<path d="M3.02132 48.2556C3.23468 47.5585 3.45893 46.8662 3.69387 46.1788L6.08077 48.5673C6.46019 48.947 6.46019 49.5626 6.08077 49.9422C5.70135 50.3219 5.08619 50.3219 4.70677 49.9422L3.02132 48.2556Z" fill="#FAAD14"/>
<path d="M3.78173 45.9234C4.24492 44.5857 4.74864 43.2669 5.29142 41.9685C5.57297 41.9388 5.86499 42.0319 6.08077 42.2479C6.46019 42.6275 6.46019 43.2431 6.08077 43.6228L3.78173 45.9234Z" fill="#FAAD14"/>
<path d="M43.486 13.0812C43.1066 12.7015 42.4914 12.7015 42.112 13.0812C41.7326 13.4609 41.7326 14.0764 42.112 14.4561L44.5826 16.9284L42.112 19.4006C41.7326 19.7803 41.7326 20.3959 42.112 20.7756C42.4914 21.1552 43.1066 21.1552 43.486 20.7756L45.9566 18.3033L48.4272 20.7756C48.8066 21.1552 49.4218 21.1552 49.8012 20.7756C50.1806 20.3959 50.1806 19.7803 49.8012 19.4006L47.3306 16.9284L49.8012 14.4561C50.1806 14.0764 50.1806 13.4609 49.8012 13.0812C49.4218 12.7015 48.8066 12.7015 48.4272 13.0812L45.9566 15.5534L43.486 13.0812Z" fill="#FAAD14"/>
<path d="M58.0595 13.0812C57.6801 12.7015 57.0649 12.7015 56.6855 13.0812C56.3061 13.4609 56.3061 14.0764 56.6855 14.4561L59.1561 16.9284L56.6855 19.4006C56.3061 19.7803 56.3061 20.3959 56.6855 20.7756C57.0649 21.1552 57.6801 21.1552 58.0595 20.7756L60.5301 18.3033L63.0006 20.7756C63.3801 21.1552 63.9952 21.1552 64.3746 20.7756C64.7541 20.3959 64.7541 19.7803 64.3746 19.4006L61.9041 16.9284L64.3746 14.4561C64.7541 14.0764 64.7541 13.4609 64.3746 13.0812C63.9952 12.7015 63.3801 12.7015 63.0006 13.0812L60.5301 15.5534L58.0595 13.0812Z" fill="#FAAD14"/>
<path d="M72.6329 13.0812C72.2535 12.7015 71.6384 12.7015 71.2589 13.0812C70.8795 13.4609 70.8795 14.0764 71.2589 14.4561L73.7295 16.9284L71.2589 19.4006C70.8795 19.7803 70.8795 20.3959 71.2589 20.7756C71.6384 21.1552 72.2535 21.1552 72.6329 20.7756L75.1035 18.3033L77.5741 20.7756C77.9535 21.1552 78.5687 21.1552 78.9481 20.7756C79.3275 20.3959 79.3275 19.7803 78.9481 19.4006L76.4775 16.9284L78.9481 14.4561C79.3275 14.0764 79.3275 13.4609 78.9481 13.0812C78.5687 12.7015 77.9535 12.7015 77.5741 13.0812L75.1035 15.5534L72.6329 13.0812Z" fill="#FAAD14"/>
<path d="M87.2064 13.0812C86.827 12.7015 86.2118 12.7015 85.8324 13.0812C85.453 13.4609 85.453 14.0764 85.8324 14.4561L88.303 16.9284L85.8324 19.4006C85.453 19.7803 85.453 20.3959 85.8324 20.7756C86.2118 21.1552 86.827 21.1552 87.2064 20.7756L89.677 18.3033L92.1476 20.7756C92.527 21.1552 93.1422 21.1552 93.5216 20.7756C93.901 20.3959 93.901 19.7803 93.5216 19.4006L91.051 16.9284L93.5216 14.4561C93.901 14.0764 93.901 13.4609 93.5216 13.0812C93.1422 12.7015 92.527 12.7015 92.1476 13.0812L89.677 15.5534L87.2064 13.0812Z" fill="#FAAD14"/>
<path d="M28.9125 27.6645C28.5331 27.2848 27.918 27.2848 27.5385 27.6645C27.1591 28.0442 27.1591 28.6598 27.5385 29.0394L30.0091 31.5117L27.5385 33.984C27.1591 34.3636 27.1591 34.9792 27.5385 35.3589C27.918 35.7386 28.5331 35.7386 28.9125 35.3589L31.3831 32.8866L33.8537 35.3589C34.2331 35.7386 34.8483 35.7386 35.2277 35.3589C35.6071 34.9792 35.6071 34.3636 35.2277 33.984L32.7571 31.5117L35.2277 29.0394C35.6071 28.6598 35.6071 28.0442 35.2277 27.6645C34.8483 27.2848 34.2331 27.2848 33.8537 27.6645L31.3831 30.1368L28.9125 27.6645Z" fill="#FAAD14"/>
<path d="M43.486 27.6645C43.1066 27.2848 42.4914 27.2848 42.112 27.6645C41.7326 28.0442 41.7326 28.6598 42.112 29.0394L44.5826 31.5117L42.112 33.984C41.7326 34.3636 41.7326 34.9792 42.112 35.3589C42.4914 35.7386 43.1066 35.7386 43.486 35.3589L45.9566 32.8866L48.4272 35.3589C48.8066 35.7386 49.4218 35.7386 49.8012 35.3589C50.1806 34.9792 50.1806 34.3636 49.8012 33.984L47.3306 31.5117L49.8012 29.0394C50.1806 28.6598 50.1806 28.0442 49.8012 27.6645C49.4218 27.2848 48.8066 27.2848 48.4272 27.6645L45.9566 30.1368L43.486 27.6645Z" fill="#FAAD14"/>
<path d="M58.0595 27.6645C57.6801 27.2848 57.0649 27.2848 56.6855 27.6645C56.3061 28.0442 56.3061 28.6598 56.6855 29.0394L59.1561 31.5117L56.6855 33.984C56.3061 34.3636 56.3061 34.9792 56.6855 35.3589C57.0649 35.7386 57.6801 35.7386 58.0595 35.3589L60.5301 32.8866L63.0006 35.3589C63.3801 35.7386 63.9952 35.7386 64.3746 35.3589C64.7541 34.9792 64.7541 34.3636 64.3746 33.984L61.9041 31.5117L64.3746 29.0394C64.7541 28.6598 64.7541 28.0442 64.3746 27.6645C63.9952 27.2848 63.3801 27.2848 63.0006 27.6645L60.5301 30.1368L58.0595 27.6645Z" fill="#FAAD14"/>
<path d="M72.6329 27.6645C72.2535 27.2848 71.6384 27.2848 71.2589 27.6645C70.8795 28.0442 70.8795 28.6598 71.2589 29.0394L73.7295 31.5117L71.2589 33.984C70.8795 34.3636 70.8795 34.9792 71.2589 35.3589C71.6384 35.7386 72.2535 35.7386 72.6329 35.3589L75.1035 32.8866L77.5741 35.3589C77.9535 35.7386 78.5687 35.7386 78.9481 35.3589C79.3275 34.9792 79.3275 34.3636 78.9481 33.984L76.4775 31.5117L78.9481 29.0394C79.3275 28.6598 79.3275 28.0442 78.9481 27.6645C78.5687 27.2848 77.9535 27.2848 77.5741 27.6645L75.1035 30.1368L72.6329 27.6645Z" fill="#FAAD14"/>
<path d="M87.2064 27.6645C86.827 27.2848 86.2118 27.2848 85.8324 27.6645C85.453 28.0442 85.453 28.6598 85.8324 29.0394L88.303 31.5117L85.8324 33.984C85.453 34.3636 85.453 34.9792 85.8324 35.3589C86.2118 35.7386 86.827 35.7386 87.2064 35.3589L89.677 32.8866L92.1476 35.3589C92.527 35.7386 93.1422 35.7386 93.5216 35.3589C93.901 34.9792 93.901 34.3636 93.5216 33.984L91.051 31.5117L93.5216 29.0394C93.901 28.6598 93.901 28.0442 93.5216 27.6645C93.1422 27.2848 92.527 27.2848 92.1476 27.6645L89.677 30.1368L87.2064 27.6645Z" fill="#FAAD14"/>
<path d="M101.78 27.6645C101.4 27.2848 100.785 27.2848 100.406 27.6645C100.026 28.0442 100.026 28.6598 100.406 29.0394L102.876 31.5117L100.406 33.984C100.026 34.3636 100.026 34.9792 100.406 35.3589C100.785 35.7386 101.4 35.7386 101.78 35.3589L104.25 32.8866L106.721 35.3589C107.1 35.7386 107.716 35.7386 108.095 35.3589C108.474 34.9792 108.474 34.3636 108.095 33.984L105.624 31.5117L108.095 29.0394C108.474 28.6598 108.474 28.0442 108.095 27.6645C107.716 27.2848 107.1 27.2848 106.721 27.6645L104.25 30.1368L101.78 27.6645Z" fill="#FAAD14"/>
<path d="M116.353 27.6645C115.974 27.2848 115.359 27.2848 114.979 27.6645C114.6 28.0442 114.6 28.6598 114.979 29.0394L117.45 31.5117L114.979 33.984C114.6 34.3636 114.6 34.9792 114.979 35.3589C115.359 35.7386 115.974 35.7386 116.353 35.3589L118.824 32.8866L121.295 35.3589C121.674 35.7386 122.289 35.7386 122.669 35.3589C123.048 34.9792 123.048 34.3636 122.669 33.984L120.198 31.5117L122.669 29.0394C123.048 28.6598 123.048 28.0442 122.669 27.6645C122.289 27.2848 121.674 27.2848 121.295 27.6645L118.824 30.1368L116.353 27.6645Z" fill="#FAAD14"/>
<path d="M14.3391 42.2479C13.9596 41.8682 13.3445 41.8682 12.9651 42.2479C12.5857 42.6275 12.5857 43.2431 12.9651 43.6228L15.4357 46.0951L12.9651 48.5673C12.5857 48.947 12.5857 49.5626 12.9651 49.9422C13.3445 50.3219 13.9596 50.3219 14.3391 49.9422L16.8097 47.47L19.2802 49.9422C19.6597 50.3219 20.2748 50.3219 20.6542 49.9422C21.0337 49.5626 21.0337 48.947 20.6542 48.5673L18.1837 46.0951L20.6542 43.6228C21.0337 43.2431 21.0337 42.6275 20.6542 42.2479C20.2748 41.8682 19.6597 41.8682 19.2802 42.2479L16.8097 44.7201L14.3391 42.2479Z" fill="#FAAD14"/>
<path d="M28.9125 42.2479C28.5331 41.8682 27.918 41.8682 27.5385 42.2479C27.1591 42.6275 27.1591 43.2431 27.5385 43.6228L30.0091 46.0951L27.5385 48.5673C27.1591 48.947 27.1591 49.5626 27.5385 49.9422C27.918 50.3219 28.5331 50.3219 28.9125 49.9422L31.3831 47.47L33.8537 49.9422C34.2331 50.3219 34.8483 50.3219 35.2277 49.9422C35.6071 49.5626 35.6071 48.947 35.2277 48.5673L32.7571 46.0951L35.2277 43.6228C35.6071 43.2431 35.6071 42.6275 35.2277 42.2479C34.8483 41.8682 34.2331 41.8682 33.8537 42.2479L31.3831 44.7201L28.9125 42.2479Z" fill="#FAAD14"/>
<path d="M43.486 42.2479C43.1066 41.8682 42.4914 41.8682 42.112 42.2479C41.7326 42.6275 41.7326 43.2431 42.112 43.6228L44.5826 46.0951L42.112 48.5673C41.7326 48.947 41.7326 49.5626 42.112 49.9422C42.4914 50.3219 43.1066 50.3219 43.486 49.9422L45.9566 47.47L48.4272 49.9422C48.8066 50.3219 49.4218 50.3219 49.8012 49.9422C50.1806 49.5626 50.1806 48.947 49.8012 48.5673L47.3306 46.0951L49.8012 43.6228C50.1806 43.2431 50.1806 42.6275 49.8012 42.2479C49.4218 41.8682 48.8066 41.8682 48.4272 42.2479L45.9566 44.7201L43.486 42.2479Z" fill="#FAAD14"/>
<path d="M58.0595 42.2479C57.6801 41.8682 57.0649 41.8682 56.6855 42.2479C56.3061 42.6275 56.3061 43.2431 56.6855 43.6228L59.1561 46.0951L56.6855 48.5673C56.3061 48.947 56.3061 49.5626 56.6855 49.9422C57.0649 50.3219 57.6801 50.3219 58.0595 49.9422L60.5301 47.47L63.0006 49.9422C63.3801 50.3219 63.9952 50.3219 64.3746 49.9422C64.7541 49.5626 64.7541 48.947 64.3746 48.5673L61.9041 46.0951L64.3746 43.6228C64.7541 43.2431 64.7541 42.6275 64.3746 42.2479C63.9952 41.8682 63.3801 41.8682 63.0006 42.2479L60.5301 44.7201L58.0595 42.2479Z" fill="#FAAD14"/>
<path d="M72.6329 42.2479C72.2535 41.8682 71.6384 41.8682 71.2589 42.2479C70.8795 42.6275 70.8795 43.2431 71.2589 43.6228L73.7295 46.0951L71.2589 48.5673C70.8795 48.947 70.8795 49.5626 71.2589 49.9422C71.6384 50.3219 72.2535 50.3219 72.6329 49.9422L75.1035 47.47L77.5741 49.9422C77.9535 50.3219 78.5687 50.3219 78.9481 49.9422C79.3275 49.5626 79.3275 48.947 78.9481 48.5673L76.4775 46.0951L78.9481 43.6228C79.3275 43.2431 79.3275 42.6275 78.9481 42.2479C78.5687 41.8682 77.9535 41.8682 77.5741 42.2479L75.1035 44.7201L72.6329 42.2479Z" fill="#FAAD14"/>
<path d="M87.2064 42.2479C86.827 41.8682 86.2118 41.8682 85.8324 42.2479C85.453 42.6275 85.453 43.2431 85.8324 43.6228L88.303 46.0951L85.8324 48.5673C85.453 48.947 85.453 49.5626 85.8324 49.9422C86.2118 50.3219 86.827 50.3219 87.2064 49.9422L89.677 47.47L92.1476 49.9422C92.527 50.3219 93.1422 50.3219 93.5216 49.9422C93.901 49.5626 93.901 48.947 93.5216 48.5673L91.051 46.0951L93.5216 43.6228C93.901 43.2431 93.901 42.6275 93.5216 42.2479C93.1422 41.8682 92.527 41.8682 92.1476 42.2479L89.677 44.7201L87.2064 42.2479Z" fill="#FAAD14"/>
<path d="M101.78 42.2479C101.4 41.8682 100.785 41.8682 100.406 42.2479C100.026 42.6275 100.026 43.2431 100.406 43.6228L102.876 46.0951L100.406 48.5673C100.026 48.947 100.026 49.5626 100.406 49.9422C100.785 50.3219 101.4 50.3219 101.78 49.9422L104.25 47.47L106.721 49.9422C107.1 50.3219 107.716 50.3219 108.095 49.9422C108.474 49.5626 108.474 48.947 108.095 48.5673L105.624 46.0951L108.095 43.6228C108.474 43.2431 108.474 42.6275 108.095 42.2479C107.716 41.8682 107.1 41.8682 106.721 42.2479L104.25 44.7201L101.78 42.2479Z" fill="#FAAD14"/>
<path d="M116.353 42.2479C115.974 41.8682 115.359 41.8682 114.979 42.2479C114.6 42.6275 114.6 43.2431 114.979 43.6228L117.45 46.0951L114.979 48.5673C114.6 48.947 114.6 49.5626 114.979 49.9422C115.359 50.3219 115.974 50.3219 116.353 49.9422L118.824 47.47L121.295 49.9422C121.674 50.3219 122.289 50.3219 122.669 49.9422C123.048 49.5626 123.048 48.947 122.669 48.5673L120.198 46.0951L122.669 43.6228C123.048 43.2431 123.048 42.6275 122.669 42.2479C122.289 41.8682 121.674 41.8682 121.295 42.2479L118.824 44.7201L116.353 42.2479Z" fill="#FAAD14"/>
<path d="M14.3391 56.8312C13.9596 56.4515 13.3445 56.4515 12.9651 56.8312C12.5857 57.2109 12.5857 57.8265 12.9651 58.2061L15.4357 60.6784L12.9651 63.1507C12.5857 63.5303 12.5857 64.1459 12.9651 64.5256C13.3445 64.9053 13.9596 64.9053 14.3391 64.5256L16.8097 62.0533L19.2802 64.5256C19.6597 64.9053 20.2748 64.9053 20.6542 64.5256C21.0337 64.1459 21.0337 63.5303 20.6542 63.1507L18.1837 60.6784L20.6542 58.2061C21.0337 57.8265 21.0337 57.2109 20.6542 56.8312C20.2748 56.4515 19.6597 56.4515 19.2802 56.8312L16.8097 59.3035L14.3391 56.8312Z" fill="#FAAD14"/>
<path d="M28.9125 56.8312C28.5331 56.4515 27.918 56.4515 27.5385 56.8312C27.1591 57.2109 27.1591 57.8265 27.5385 58.2061L30.0091 60.6784L27.5385 63.1507C27.1591 63.5303 27.1591 64.1459 27.5385 64.5256C27.918 64.9053 28.5331 64.9053 28.9125 64.5256L31.3831 62.0533L33.8537 64.5256C34.2331 64.9053 34.8483 64.9053 35.2277 64.5256C35.6071 64.1459 35.6071 63.5303 35.2277 63.1507L32.7571 60.6784L35.2277 58.2061C35.6071 57.8265 35.6071 57.2109 35.2277 56.8312C34.8483 56.4515 34.2331 56.4515 33.8537 56.8312L31.3831 59.3035L28.9125 56.8312Z" fill="#FAAD14"/>
<path d="M43.486 56.8312C43.1066 56.4515 42.4914 56.4515 42.112 56.8312C41.7326 57.2109 41.7326 57.8265 42.112 58.2061L44.5826 60.6784L42.112 63.1507C41.7326 63.5303 41.7326 64.1459 42.112 64.5256C42.4914 64.9053 43.1066 64.9053 43.486 64.5256L45.9566 62.0533L48.4272 64.5256C48.8066 64.9053 49.4218 64.9053 49.8012 64.5256C50.1806 64.1459 50.1806 63.5303 49.8012 63.1507L47.3306 60.6784L49.8012 58.2061C50.1806 57.8265 50.1806 57.2109 49.8012 56.8312C49.4218 56.4515 48.8066 56.4515 48.4272 56.8312L45.9566 59.3035L43.486 56.8312Z" fill="#FAAD14"/>
<path d="M58.0595 56.8312C57.6801 56.4515 57.0649 56.4515 56.6855 56.8312C56.3061 57.2109 56.3061 57.8265 56.6855 58.2061L59.1561 60.6784L56.6855 63.1507C56.3061 63.5303 56.3061 64.1459 56.6855 64.5256C57.0649 64.9053 57.6801 64.9053 58.0595 64.5256L60.5301 62.0533L63.0006 64.5256C63.3801 64.9053 63.9952 64.9053 64.3746 64.5256C64.7541 64.1459 64.7541 63.5303 64.3746 63.1507L61.9041 60.6784L64.3746 58.2061C64.7541 57.8265 64.7541 57.2109 64.3746 56.8312C63.9952 56.4515 63.3801 56.4515 63.0006 56.8312L60.5301 59.3035L58.0595 56.8312Z" fill="#FAAD14"/>
<path d="M72.6329 56.8312C72.2535 56.4515 71.6384 56.4515 71.2589 56.8312C70.8795 57.2109 70.8795 57.8265 71.2589 58.2061L73.7295 60.6784L71.2589 63.1507C70.8795 63.5303 70.8795 64.1459 71.2589 64.5256C71.6384 64.9053 72.2535 64.9053 72.6329 64.5256L75.1035 62.0533L77.5741 64.5256C77.9535 64.9053 78.5687 64.9053 78.9481 64.5256C79.3275 64.1459 79.3275 63.5303 78.9481 63.1507L76.4775 60.6784L78.9481 58.2061C79.3275 57.8265 79.3275 57.2109 78.9481 56.8312C78.5687 56.4515 77.9535 56.4515 77.5741 56.8312L75.1035 59.3035L72.6329 56.8312Z" fill="#FAAD14"/>
<path d="M87.2064 56.8312C86.827 56.4515 86.2118 56.4515 85.8324 56.8312C85.453 57.2109 85.453 57.8265 85.8324 58.2061L88.303 60.6784L85.8324 63.1507C85.453 63.5303 85.453 64.1459 85.8324 64.5256C86.2118 64.9053 86.827 64.9053 87.2064 64.5256L89.677 62.0533L92.1476 64.5256C92.527 64.9053 93.1422 64.9053 93.5216 64.5256C93.901 64.1459 93.901 63.5303 93.5216 63.1507L91.051 60.6784L93.5216 58.2061C93.901 57.8265 93.901 57.2109 93.5216 56.8312C93.1422 56.4515 92.527 56.4515 92.1476 56.8312L89.677 59.3035L87.2064 56.8312Z" fill="#FAAD14"/>
<path d="M101.78 56.8312C101.4 56.4515 100.785 56.4515 100.406 56.8312C100.026 57.2109 100.026 57.8265 100.406 58.2061L102.876 60.6784L100.406 63.1507C100.026 63.5303 100.026 64.1459 100.406 64.5256C100.785 64.9053 101.4 64.9053 101.78 64.5256L104.25 62.0533L106.721 64.5256C107.1 64.9053 107.716 64.9053 108.095 64.5256C108.474 64.1459 108.474 63.5303 108.095 63.1507L105.624 60.6784L108.095 58.2061C108.474 57.8265 108.474 57.2109 108.095 56.8312C107.716 56.4515 107.1 56.4515 106.721 56.8312L104.25 59.3035L101.78 56.8312Z" fill="#FAAD14"/>
<path d="M116.353 56.8312C115.974 56.4515 115.359 56.4515 114.979 56.8312C114.6 57.2109 114.6 57.8265 114.979 58.2061L117.45 60.6784L114.979 63.1507C114.6 63.5303 114.6 64.1459 114.979 64.5256C115.359 64.9053 115.974 64.9053 116.353 64.5256L118.824 62.0533L121.295 64.5256C121.674 64.9053 122.289 64.9053 122.669 64.5256C123.048 64.1459 123.048 63.5303 122.669 63.1507L120.198 60.6784L122.669 58.2061C123.048 57.8265 123.048 57.2109 122.669 56.8312C122.289 56.4515 121.674 56.4515 121.295 56.8312L118.824 59.3035L116.353 56.8312Z" fill="#FAAD14"/>
<path d="M14.3391 71.4145C13.9596 71.0349 13.3445 71.0349 12.9651 71.4145C12.5857 71.7942 12.5857 72.4098 12.9651 72.7895L15.4357 75.2617L12.9651 77.734C12.5857 78.1137 12.5857 78.7292 12.9651 79.1089C13.3445 79.4886 13.9596 79.4886 14.3391 79.1089L16.8097 76.6367L19.2802 79.1089C19.6597 79.4886 20.2748 79.4886 20.6542 79.1089C21.0337 78.7292 21.0337 78.1137 20.6542 77.734L18.1837 75.2617L20.6542 72.7895C21.0337 72.4098 21.0337 71.7942 20.6542 71.4145C20.2748 71.0349 19.6597 71.0349 19.2802 71.4145L16.8097 73.8868L14.3391 71.4145Z" fill="#FAAD14"/>
<path d="M28.9125 71.4145C28.5331 71.0349 27.918 71.0349 27.5385 71.4145C27.1591 71.7942 27.1591 72.4098 27.5385 72.7895L30.0091 75.2617L27.5385 77.734C27.1591 78.1137 27.1591 78.7292 27.5385 79.1089C27.918 79.4886 28.5331 79.4886 28.9125 79.1089L31.3831 76.6367L33.8537 79.1089C34.2331 79.4886 34.8483 79.4886 35.2277 79.1089C35.6071 78.7292 35.6071 78.1137 35.2277 77.734L32.7571 75.2617L35.2277 72.7895C35.6071 72.4098 35.6071 71.7942 35.2277 71.4145C34.8483 71.0349 34.2331 71.0349 33.8537 71.4145L31.3831 73.8868L28.9125 71.4145Z" fill="#FAAD14"/>
<path d="M43.486 71.4145C43.1066 71.0349 42.4914 71.0349 42.112 71.4145C41.7326 71.7942 41.7326 72.4098 42.112 72.7895L44.5826 75.2617L42.112 77.734C41.7326 78.1137 41.7326 78.7292 42.112 79.1089C42.4914 79.4886 43.1066 79.4886 43.486 79.1089L45.9566 76.6367L48.4272 79.1089C48.8066 79.4886 49.4218 79.4886 49.8012 79.1089C50.1806 78.7292 50.1806 78.1137 49.8012 77.734L47.3306 75.2617L49.8012 72.7895C50.1806 72.4098 50.1806 71.7942 49.8012 71.4145C49.4218 71.0349 48.8066 71.0349 48.4272 71.4145L45.9566 73.8868L43.486 71.4145Z" fill="#FAAD14"/>
<path d="M58.0595 71.4145C57.6801 71.0349 57.0649 71.0349 56.6855 71.4145C56.3061 71.7942 56.3061 72.4098 56.6855 72.7895L59.1561 75.2617L56.6855 77.734C56.3061 78.1137 56.3061 78.7292 56.6855 79.1089C57.0649 79.4886 57.6801 79.4886 58.0595 79.1089L60.5301 76.6367L63.0006 79.1089C63.3801 79.4886 63.9952 79.4886 64.3746 79.1089C64.7541 78.7292 64.7541 78.1137 64.3746 77.734L61.9041 75.2617L64.3746 72.7895C64.7541 72.4098 64.7541 71.7942 64.3746 71.4145C63.9952 71.0349 63.3801 71.0349 63.0006 71.4145L60.5301 73.8868L58.0595 71.4145Z" fill="#FAAD14"/>
<path d="M72.6329 71.4145C72.2535 71.0349 71.6384 71.0349 71.2589 71.4145C70.8795 71.7942 70.8795 72.4098 71.2589 72.7895L73.7295 75.2617L71.2589 77.734C70.8795 78.1137 70.8795 78.7292 71.2589 79.1089C71.6384 79.4886 72.2535 79.4886 72.6329 79.1089L75.1035 76.6367L77.5741 79.1089C77.9535 79.4886 78.5687 79.4886 78.9481 79.1089C79.3275 78.7292 79.3275 78.1137 78.9481 77.734L76.4775 75.2617L78.9481 72.7895C79.3275 72.4098 79.3275 71.7942 78.9481 71.4145C78.5687 71.0349 77.9535 71.0349 77.5741 71.4145L75.1035 73.8868L72.6329 71.4145Z" fill="#FAAD14"/>
<path d="M87.2064 71.4145C86.827 71.0349 86.2118 71.0349 85.8324 71.4145C85.453 71.7942 85.453 72.4098 85.8324 72.7895L88.303 75.2617L85.8324 77.734C85.453 78.1137 85.453 78.7292 85.8324 79.1089C86.2118 79.4886 86.827 79.4886 87.2064 79.1089L89.677 76.6367L92.1476 79.1089C92.527 79.4886 93.1422 79.4886 93.5216 79.1089C93.901 78.7292 93.901 78.1137 93.5216 77.734L91.051 75.2617L93.5216 72.7895C93.901 72.4098 93.901 71.7942 93.5216 71.4145C93.1422 71.0349 92.527 71.0349 92.1476 71.4145L89.677 73.8868L87.2064 71.4145Z" fill="#FAAD14"/>
<path d="M101.78 71.4145C101.4 71.0349 100.785 71.0349 100.406 71.4145C100.026 71.7942 100.026 72.4098 100.406 72.7895L102.876 75.2617L100.406 77.734C100.026 78.1137 100.026 78.7292 100.406 79.1089C100.785 79.4886 101.4 79.4886 101.78 79.1089L104.25 76.6367L106.721 79.1089C107.1 79.4886 107.716 79.4886 108.095 79.1089C108.474 78.7292 108.474 78.1137 108.095 77.734L105.624 75.2617L108.095 72.7895C108.474 72.4098 108.474 71.7942 108.095 71.4145C107.716 71.0349 107.1 71.0349 106.721 71.4145L104.25 73.8868L101.78 71.4145Z" fill="#FAAD14"/>
<path d="M116.353 71.4145C115.974 71.0349 115.359 71.0349 114.979 71.4145C114.6 71.7942 114.6 72.4098 114.979 72.7895L117.45 75.2617L114.979 77.734C114.6 78.1137 114.6 78.7292 114.979 79.1089C115.359 79.4886 115.974 79.4886 116.353 79.1089L118.824 76.6367L121.295 79.1089C121.674 79.4886 122.289 79.4886 122.669 79.1089C123.048 78.7292 123.048 78.1137 122.669 77.734L120.198 75.2617L122.669 72.7895C123.048 72.4098 123.048 71.7942 122.669 71.4145C122.289 71.0349 121.674 71.0349 121.295 71.4145L118.824 73.8868L116.353 71.4145Z" fill="#FAAD14"/>
<path d="M14.3391 85.9979C13.9596 85.6182 13.3445 85.6182 12.9651 85.9979C12.5857 86.3776 12.5857 86.9931 12.9651 87.3728L15.4357 89.8451L12.9651 92.3173C12.5857 92.697 12.5857 93.3126 12.9651 93.6923C13.3445 94.0719 13.9596 94.0719 14.3391 93.6923L16.8097 91.22L19.2802 93.6923C19.6597 94.0719 20.2748 94.0719 20.6542 93.6923C21.0337 93.3126 21.0337 92.697 20.6542 92.3173L18.1837 89.8451L20.6542 87.3728C21.0337 86.9931 21.0337 86.3776 20.6542 85.9979C20.2748 85.6182 19.6597 85.6182 19.2802 85.9979L16.8097 88.4701L14.3391 85.9979Z" fill="#FAAD14"/>
<path d="M28.9125 85.9979C28.5331 85.6182 27.918 85.6182 27.5385 85.9979C27.1591 86.3776 27.1591 86.9931 27.5385 87.3728L30.0091 89.8451L27.5385 92.3173C27.1591 92.697 27.1591 93.3126 27.5385 93.6923C27.918 94.0719 28.5331 94.0719 28.9125 93.6923L31.3831 91.22L33.8537 93.6923C34.2331 94.0719 34.8483 94.0719 35.2277 93.6923C35.6071 93.3126 35.6071 92.697 35.2277 92.3173L32.7571 89.8451L35.2277 87.3728C35.6071 86.9931 35.6071 86.3776 35.2277 85.9979C34.8483 85.6182 34.2331 85.6182 33.8537 85.9979L31.3831 88.4701L28.9125 85.9979Z" fill="#FAAD14"/>
<path d="M43.486 85.9979C43.1066 85.6182 42.4914 85.6182 42.112 85.9979C41.7326 86.3776 41.7326 86.9931 42.112 87.3728L44.5826 89.8451L42.112 92.3173C41.7326 92.697 41.7326 93.3126 42.112 93.6923C42.4914 94.0719 43.1066 94.0719 43.486 93.6923L45.9566 91.22L48.4272 93.6923C48.8066 94.0719 49.4218 94.0719 49.8012 93.6923C50.1806 93.3126 50.1806 92.697 49.8012 92.3173L47.3306 89.8451L49.8012 87.3728C50.1806 86.9931 50.1806 86.3776 49.8012 85.9979C49.4218 85.6182 48.8066 85.6182 48.4272 85.9979L45.9566 88.4701L43.486 85.9979Z" fill="#FAAD14"/>
<path d="M58.0595 85.9979C57.6801 85.6182 57.0649 85.6182 56.6855 85.9979C56.3061 86.3776 56.3061 86.9931 56.6855 87.3728L59.1561 89.8451L56.6855 92.3173C56.3061 92.697 56.3061 93.3126 56.6855 93.6923C57.0649 94.0719 57.6801 94.0719 58.0595 93.6923L60.5301 91.22L63.0006 93.6923C63.3801 94.0719 63.9952 94.0719 64.3746 93.6923C64.7541 93.3126 64.7541 92.697 64.3746 92.3173L61.9041 89.8451L64.3746 87.3728C64.7541 86.9931 64.7541 86.3776 64.3746 85.9979C63.9952 85.6182 63.3801 85.6182 63.0006 85.9979L60.5301 88.4701L58.0595 85.9979Z" fill="#FAAD14"/>
<path d="M72.6329 85.9979C72.2535 85.6182 71.6384 85.6182 71.2589 85.9979C70.8795 86.3776 70.8795 86.9931 71.2589 87.3728L73.7295 89.8451L71.2589 92.3173C70.8795 92.697 70.8795 93.3126 71.2589 93.6923C71.6384 94.0719 72.2535 94.0719 72.6329 93.6923L75.1035 91.22L77.5741 93.6923C77.9535 94.0719 78.5687 94.0719 78.9481 93.6923C79.3275 93.3126 79.3275 92.697 78.9481 92.3173L76.4775 89.8451L78.9481 87.3728C79.3275 86.9931 79.3275 86.3776 78.9481 85.9979C78.5687 85.6182 77.9535 85.6182 77.5741 85.9979L75.1035 88.4701L72.6329 85.9979Z" fill="#FAAD14"/>
<path d="M87.2064 85.9979C86.827 85.6182 86.2118 85.6182 85.8324 85.9979C85.453 86.3776 85.453 86.9931 85.8324 87.3728L88.303 89.8451L85.8324 92.3173C85.453 92.697 85.453 93.3126 85.8324 93.6923C86.2118 94.0719 86.827 94.0719 87.2064 93.6923L89.677 91.22L92.1476 93.6923C92.527 94.0719 93.1422 94.0719 93.5216 93.6923C93.901 93.3126 93.901 92.697 93.5216 92.3173L91.051 89.8451L93.5216 87.3728C93.901 86.9931 93.901 86.3776 93.5216 85.9979C93.1422 85.6182 92.527 85.6182 92.1476 85.9979L89.677 88.4701L87.2064 85.9979Z" fill="#FAAD14"/>
<path d="M101.78 85.9979C101.4 85.6182 100.785 85.6182 100.406 85.9979C100.026 86.3776 100.026 86.9931 100.406 87.3728L102.876 89.8451L100.406 92.3173C100.026 92.697 100.026 93.3126 100.406 93.6923C100.785 94.0719 101.4 94.0719 101.78 93.6923L104.25 91.22L106.721 93.6923C107.1 94.0719 107.716 94.0719 108.095 93.6923C108.474 93.3126 108.474 92.697 108.095 92.3173L105.624 89.8451L108.095 87.3728C108.474 86.9931 108.474 86.3776 108.095 85.9979C107.716 85.6182 107.1 85.6182 106.721 85.9979L104.25 88.4701L101.78 85.9979Z" fill="#FAAD14"/>
<path d="M116.353 85.9979C115.974 85.6182 115.359 85.6182 114.979 85.9979C114.6 86.3776 114.6 86.9931 114.979 87.3728L117.45 89.8451L114.979 92.3173C114.6 92.697 114.6 93.3126 114.979 93.6923C115.359 94.0719 115.974 94.0719 116.353 93.6923L118.824 91.22L121.295 93.6923C121.674 94.0719 122.289 94.0719 122.669 93.6923C123.048 93.3126 123.048 92.697 122.669 92.3173L120.198 89.8451L122.669 87.3728C123.048 86.9931 123.048 86.3776 122.669 85.9979C122.289 85.6182 121.674 85.6182 121.295 85.9979L118.824 88.4701L116.353 85.9979Z" fill="#FAAD14"/>
<path d="M28.9125 100.581C28.5331 100.202 27.918 100.202 27.5385 100.581C27.1591 100.961 27.1591 101.576 27.5385 101.956L30.0091 104.428L27.5385 106.901C27.1591 107.28 27.1591 107.896 27.5385 108.276C27.918 108.655 28.5331 108.655 28.9125 108.276L31.3831 105.803L33.8537 108.276C34.2331 108.655 34.8483 108.655 35.2277 108.276C35.6071 107.896 35.6071 107.28 35.2277 106.901L32.7571 104.428L35.2277 101.956C35.6071 101.576 35.6071 100.961 35.2277 100.581C34.8483 100.202 34.2331 100.202 33.8537 100.581L31.3831 103.053L28.9125 100.581Z" fill="#FAAD14"/>
<path d="M43.486 100.581C43.1066 100.202 42.4914 100.202 42.112 100.581C41.7326 100.961 41.7326 101.576 42.112 101.956L44.5826 104.428L42.112 106.901C41.7326 107.28 41.7326 107.896 42.112 108.276C42.4914 108.655 43.1066 108.655 43.486 108.276L45.9566 105.803L48.4272 108.276C48.8066 108.655 49.4218 108.655 49.8012 108.276C50.1806 107.896 50.1806 107.28 49.8012 106.901L47.3306 104.428L49.8012 101.956C50.1806 101.576 50.1806 100.961 49.8012 100.581C49.4218 100.202 48.8066 100.202 48.4272 100.581L45.9566 103.053L43.486 100.581Z" fill="#FAAD14"/>
<path d="M58.0595 100.581C57.6801 100.202 57.0649 100.202 56.6855 100.581C56.3061 100.961 56.3061 101.576 56.6855 101.956L59.1561 104.428L56.6855 106.901C56.3061 107.28 56.3061 107.896 56.6855 108.276C57.0649 108.655 57.6801 108.655 58.0595 108.276L60.5301 105.803L63.0006 108.276C63.3801 108.655 63.9952 108.655 64.3746 108.276C64.7541 107.896 64.7541 107.28 64.3746 106.901L61.9041 104.428L64.3746 101.956C64.7541 101.576 64.7541 100.961 64.3746 100.581C63.9952 100.202 63.3801 100.202 63.0006 100.581L60.5301 103.053L58.0595 100.581Z" fill="#FAAD14"/>
<path d="M72.6329 100.581C72.2535 100.202 71.6384 100.202 71.2589 100.581C70.8795 100.961 70.8795 101.576 71.2589 101.956L73.7295 104.428L71.2589 106.901C70.8795 107.28 70.8795 107.896 71.2589 108.276C71.6384 108.655 72.2535 108.655 72.6329 108.276L75.1035 105.803L77.5741 108.276C77.9535 108.655 78.5687 108.655 78.9481 108.276C79.3275 107.896 79.3275 107.28 78.9481 106.901L76.4775 104.428L78.9481 101.956C79.3275 101.576 79.3275 100.961 78.9481 100.581C78.5687 100.202 77.9535 100.202 77.5741 100.581L75.1035 103.053L72.6329 100.581Z" fill="#FAAD14"/>
<path d="M87.2064 100.581C86.827 100.202 86.2118 100.202 85.8324 100.581C85.453 100.961 85.453 101.576 85.8324 101.956L88.303 104.428L85.8324 106.901C85.453 107.28 85.453 107.896 85.8324 108.276C86.2118 108.655 86.827 108.655 87.2064 108.276L89.677 105.803L92.1476 108.276C92.527 108.655 93.1422 108.655 93.5216 108.276C93.901 107.896 93.901 107.28 93.5216 106.901L91.051 104.428L93.5216 101.956C93.901 101.576 93.901 100.961 93.5216 100.581C93.1422 100.202 92.527 100.202 92.1476 100.581L89.677 103.053L87.2064 100.581Z" fill="#FAAD14"/>
<path d="M101.78 100.581C101.4 100.202 100.785 100.202 100.406 100.581C100.026 100.961 100.026 101.576 100.406 101.956L102.876 104.428L100.406 106.901C100.026 107.28 100.026 107.896 100.406 108.276C100.785 108.655 101.4 108.655 101.78 108.276L104.25 105.803L106.721 108.276C107.1 108.655 107.716 108.655 108.095 108.276C108.474 107.896 108.474 107.28 108.095 106.901L105.624 104.428L108.095 101.956C108.474 101.576 108.474 100.961 108.095 100.581C107.716 100.202 107.1 100.202 106.721 100.581L104.25 103.053L101.78 100.581Z" fill="#FAAD14"/>
<path d="M116.353 100.581C115.974 100.202 115.359 100.202 114.979 100.581C114.6 100.961 114.6 101.576 114.979 101.956L117.45 104.428L114.979 106.901C114.6 107.28 114.6 107.896 114.979 108.276C115.359 108.655 115.974 108.655 116.353 108.276L118.824 105.803L121.295 108.276C121.674 108.655 122.289 108.655 122.669 108.276C123.048 107.896 123.048 107.28 122.669 106.901L120.198 104.428L122.669 101.956C123.048 101.576 123.048 100.961 122.669 100.581C122.289 100.202 121.674 100.202 121.295 100.581L118.824 103.053L116.353 100.581Z" fill="#FAAD14"/>
<path d="M28.9125 115.165C28.5331 114.785 27.918 114.785 27.5385 115.165C27.1591 115.544 27.1591 116.16 27.5385 116.539L30.0091 119.012L27.5385 121.484C27.1591 121.864 27.1591 122.479 27.5385 122.859C27.918 123.239 28.5331 123.239 28.9125 122.859L31.3831 120.387L33.8537 122.859C34.2331 123.239 34.8483 123.239 35.2277 122.859C35.6071 122.479 35.6071 121.864 35.2277 121.484L32.7571 119.012L35.2277 116.539C35.6071 116.16 35.6071 115.544 35.2277 115.165C34.8483 114.785 34.2331 114.785 33.8537 115.165L31.3831 117.637L28.9125 115.165Z" fill="#FAAD14"/>
<path d="M43.486 115.165C43.1066 114.785 42.4914 114.785 42.112 115.165C41.7326 115.544 41.7326 116.16 42.112 116.539L44.5826 119.012L42.112 121.484C41.7326 121.864 41.7326 122.479 42.112 122.859C42.4914 123.239 43.1066 123.239 43.486 122.859L45.9566 120.387L48.4272 122.859C48.8066 123.239 49.4218 123.239 49.8012 122.859C50.1806 122.479 50.1806 121.864 49.8012 121.484L47.3306 119.012L49.8012 116.539C50.1806 116.16 50.1806 115.544 49.8012 115.165C49.4218 114.785 48.8066 114.785 48.4272 115.165L45.9566 117.637L43.486 115.165Z" fill="#FAAD14"/>
<path d="M58.0595 115.165C57.6801 114.785 57.0649 114.785 56.6855 115.165C56.3061 115.544 56.3061 116.16 56.6855 116.539L59.1561 119.012L56.6855 121.484C56.3061 121.864 56.3061 122.479 56.6855 122.859C57.0649 123.239 57.6801 123.239 58.0595 122.859L60.5301 120.387L63.0006 122.859C63.3801 123.239 63.9952 123.239 64.3746 122.859C64.7541 122.479 64.7541 121.864 64.3746 121.484L61.9041 119.012L64.3746 116.539C64.7541 116.16 64.7541 115.544 64.3746 115.165C63.9952 114.785 63.3801 114.785 63.0006 115.165L60.5301 117.637L58.0595 115.165Z" fill="#FAAD14"/>
<path d="M72.6329 115.165C72.2535 114.785 71.6384 114.785 71.2589 115.165C70.8795 115.544 70.8795 116.16 71.2589 116.539L73.7295 119.012L71.2589 121.484C70.8795 121.864 70.8795 122.479 71.2589 122.859C71.6384 123.239 72.2535 123.239 72.6329 122.859L75.1035 120.387L77.5741 122.859C77.9535 123.239 78.5687 123.239 78.9481 122.859C79.3275 122.479 79.3275 121.864 78.9481 121.484L76.4775 119.012L78.9481 116.539C79.3275 116.16 79.3275 115.544 78.9481 115.165C78.5687 114.785 77.9535 114.785 77.5741 115.165L75.1035 117.637L72.6329 115.165Z" fill="#FAAD14"/>
<path d="M87.2064 115.165C86.827 114.785 86.2118 114.785 85.8324 115.165C85.453 115.544 85.453 116.16 85.8324 116.539L88.303 119.012L85.8324 121.484C85.453 121.864 85.453 122.479 85.8324 122.859C86.2118 123.239 86.827 123.239 87.2064 122.859L89.677 120.387L92.1476 122.859C92.527 123.239 93.1422 123.239 93.5216 122.859C93.901 122.479 93.901 121.864 93.5216 121.484L91.051 119.012L93.5216 116.539C93.901 116.16 93.901 115.544 93.5216 115.165C93.1422 114.785 92.527 114.785 92.1476 115.165L89.677 117.637L87.2064 115.165Z" fill="#FAAD14"/>
<path d="M101.78 115.165C101.4 114.785 100.785 114.785 100.406 115.165C100.026 115.544 100.026 116.16 100.406 116.539L102.876 119.012L100.406 121.484C100.026 121.864 100.026 122.479 100.406 122.859C100.785 123.239 101.4 123.239 101.78 122.859L104.25 120.387L106.721 122.859C107.1 123.239 107.716 123.239 108.095 122.859C108.474 122.479 108.474 121.864 108.095 121.484L105.624 119.012L108.095 116.539C108.474 116.16 108.474 115.544 108.095 115.165C107.716 114.785 107.1 114.785 106.721 115.165L104.25 117.637L101.78 115.165Z" fill="#FAAD14"/>
</svg>
