<svg width="221" height="295" viewBox="0 0 221 295" fill="none" xmlns="http://www.w3.org/2000/svg">
<g clip-path="url(#clip0_1_34427)">
<path d="M159.001 0.46972C180.027 -1.15153 200.823 15.627 203.699 36.5401C205.194 47.3612 202.434 58.5085 204.475 69.2432C207.34 84.3141 219.128 96.0466 231.453 105.179C243.777 114.312 257.443 122.102 267.132 133.988C276.831 145.874 281.622 163.602 273.505 176.62C265.656 189.216 248.492 193.6 240.787 206.291C228.252 226.926 247.658 255.485 237.03 277.166C231.663 288.112 219.214 294.53 207.034 294.645C194.853 294.76 183.103 289.33 173.664 281.617C162.528 272.523 153.596 259.975 140.121 254.977C118.184 246.851 95.1264 261.788 72.1929 266.374C50.5915 270.7 26.278 264.618 11.8931 247.916C-2.49182 231.215 -4.11144 203.663 10.8581 187.479C18.937 178.74 31.2519 173.118 35.1045 161.846C39.8867 147.859 29.1914 133.93 21.2083 121.497C14.5861 111.185 9.36305 99.5289 9.06596 87.2784C8.76887 75.0183 14.174 62.1251 24.7447 55.9279C50.5149 40.7995 85.2649 69.8956 109.569 48.7906C128.343 32.5014 127.701 2.8872 159.001 0.46972Z" stroke="#FF5722" stroke-width="0.858384" stroke-miterlimit="10"/>
<path d="M157.937 8.2978C177.842 6.76289 197.537 22.6492 200.258 42.4495C201.667 52.6951 199.06 63.2476 200.996 73.4067C203.708 87.6814 214.873 98.7807 226.536 107.424C238.2 116.068 251.137 123.445 260.319 134.698C269.5 145.95 274.033 162.729 266.356 175.056C258.919 186.98 242.675 191.134 235.372 203.145C223.508 222.677 241.88 249.72 231.817 270.249C226.738 280.61 214.95 286.682 203.411 286.798C191.882 286.913 180.756 281.761 171.824 274.47C161.282 265.865 152.829 253.979 140.064 249.25C119.296 241.556 97.465 255.696 75.7582 260.042C55.3069 264.138 32.2872 258.383 18.6689 242.573C5.04111 226.763 3.51732 200.68 17.6914 185.359C25.3487 177.09 37.0023 171.756 40.644 161.098C45.1675 147.859 35.0472 134.669 27.4858 122.898C21.2182 113.132 16.273 102.1 15.9855 90.5018C15.698 78.894 20.8252 66.6915 30.8305 60.8205C55.2302 46.4979 88.1306 74.0495 111.131 54.0669C128.899 38.6314 128.295 10.6002 157.937 8.30739V8.2978Z" stroke="#FF5722" stroke-width="0.824049" stroke-linecap="round" stroke-linejoin="round"/>
<path d="M156.873 16.1259C175.657 14.6773 194.239 29.6715 196.817 48.3494C198.149 58.0193 195.687 67.977 197.507 77.5702C200.066 91.0391 210.608 101.515 221.61 109.679C232.622 117.842 244.831 124.797 253.495 135.417C262.158 146.037 266.442 161.875 259.187 173.512C252.172 184.764 236.838 188.688 229.948 200.027C218.754 218.465 236.091 243.983 226.594 263.352C221.802 273.137 210.675 278.864 199.788 278.969C188.901 279.075 178.407 274.221 169.974 267.333C160.026 259.208 152.043 247.993 140.006 243.532C120.408 236.27 99.803 249.614 79.3133 253.711C60.012 257.577 38.2956 252.147 25.4345 237.22C12.5734 222.303 11.1358 197.677 24.5145 183.22C31.7405 175.411 42.7328 170.384 46.1733 160.321C50.4476 147.821 40.8928 135.379 33.753 124.27C27.8304 115.06 23.1728 104.642 22.9044 93.6964C22.6361 82.7409 27.4662 71.2195 36.906 65.6843C59.9353 52.1675 90.9765 78.165 112.693 59.3144C129.464 44.7519 128.889 18.2939 156.863 16.1355L156.873 16.1259Z" stroke="#FF5722" stroke-width="0.789713" stroke-linecap="round" stroke-linejoin="round"/>
<path d="M155.81 23.954C173.472 22.5917 190.952 36.6937 193.368 54.2588C194.623 63.3532 192.304 72.7161 194.019 81.7337C196.434 94.3967 206.334 104.259 216.684 111.923C227.035 119.598 238.516 126.141 246.671 136.127C254.817 146.114 258.842 161.012 252.029 171.948C245.435 182.539 231.012 186.213 224.533 196.881C214.001 214.216 230.312 238.218 221.38 256.435C216.866 265.635 206.411 271.026 196.175 271.122C185.94 271.218 176.069 266.652 168.144 260.177C158.79 252.54 151.286 241.988 139.958 237.796C121.529 230.965 102.151 243.513 82.8786 247.37C64.7274 251.005 44.3048 245.892 32.2103 231.867C20.1159 217.832 18.7646 194.684 31.3478 181.09C38.1425 173.752 48.4832 169.022 51.7129 159.554C55.7284 147.802 46.7486 136.098 40.0401 125.651C34.472 116.989 30.0828 107.194 29.8336 96.9005C29.5844 86.5975 34.127 75.7668 43.0014 70.5577C64.6603 57.8467 93.8518 82.2901 114.274 64.5619C130.049 50.8628 129.512 25.9781 155.81 23.954Z" stroke="#FF5722" stroke-width="0.755378" stroke-linecap="round" stroke-linejoin="round"/>
<path d="M154.746 31.782C171.296 30.5062 187.655 43.716 189.927 60.1683C191.096 68.687 188.93 77.4552 190.54 85.9068C192.802 97.7736 202.079 107.002 211.768 114.187C221.457 121.373 232.219 127.503 239.848 136.856C247.476 146.21 251.252 160.158 244.86 170.404C238.678 180.323 225.175 183.767 219.109 193.753C209.247 209.995 224.523 232.471 216.157 249.528C211.931 258.143 202.136 263.189 192.543 263.285C182.96 263.381 173.711 259.102 166.284 253.039C157.525 245.883 150.49 236.002 139.881 232.078C122.621 225.679 104.47 237.431 86.4243 241.048C69.4231 244.453 50.2943 239.666 38.9665 226.524C27.6387 213.381 26.3737 191.7 38.1519 178.961C44.5154 172.082 54.2044 167.66 57.2328 158.786C60.9895 147.783 52.5847 136.818 46.2979 127.033C41.0845 118.917 36.9731 109.746 36.7431 100.105C36.5035 90.4635 40.7682 80.314 49.0772 75.431C69.3656 63.5259 96.7075 86.4248 115.827 69.819C130.595 56.9929 130.097 33.6815 154.726 31.782H154.746Z" stroke="#FF5722" stroke-width="0.709597" stroke-linecap="round" stroke-linejoin="round"/>
<path d="M153.682 39.6198C169.111 38.4302 184.368 50.7383 186.486 66.0874C187.579 74.0305 185.557 82.2039 187.052 90.0799C189.16 101.141 197.804 109.746 206.851 116.452C215.889 123.148 225.923 128.865 233.034 137.595C240.145 146.315 243.662 159.323 237.71 168.878C231.951 178.126 219.358 181.34 213.704 190.645C204.513 205.783 218.745 226.744 210.953 242.65C207.014 250.679 197.881 255.39 188.94 255.476C179.998 255.562 171.383 251.572 164.454 245.921C156.279 239.254 149.733 230.044 139.843 226.38C123.752 220.413 106.828 231.378 89.9989 234.745C74.1477 237.92 56.3127 233.46 45.7516 221.2C35.1905 208.949 34.0117 188.727 44.9945 176.86C50.9267 170.452 59.9544 166.317 62.7816 158.057C66.2892 147.793 58.4498 137.576 52.5847 128.453C47.7258 120.884 43.8924 112.336 43.672 103.347C43.4515 94.3585 47.4191 84.89 55.1722 80.3428C74.0806 69.2435 99.5825 90.5884 117.408 75.105C131.179 63.1423 130.71 41.4137 153.682 39.639V39.6198Z" stroke="#FF5722" stroke-width="0.675262" stroke-linecap="round" stroke-linejoin="round"/>
<path d="M152.609 47.4478C166.917 46.3446 181.072 57.7605 183.027 71.9968C184.043 79.3644 182.164 86.943 183.554 94.253C185.509 104.508 193.53 112.49 201.916 118.706C210.302 124.922 219.598 130.218 226.201 138.314C232.804 146.402 236.062 158.46 230.542 167.324C225.194 175.901 213.522 178.884 208.279 187.518C199.75 201.553 212.956 220.998 205.73 235.743C202.079 243.187 193.607 247.562 185.317 247.638C177.027 247.715 169.035 244.022 162.614 238.774C155.033 232.587 148.957 224.049 139.786 220.653C124.855 215.127 109.166 225.286 93.5642 228.404C78.8631 231.349 62.3218 227.205 52.5274 215.847C42.733 204.479 41.6405 185.734 51.8278 174.721C57.3288 168.773 65.7048 164.945 68.3211 157.28C71.57 147.764 64.296 138.286 58.8622 129.825C54.3579 122.812 50.8024 114.878 50.6011 106.542C50.3999 98.2054 54.08 89.4276 61.2676 85.2066C78.8056 74.9131 102.448 94.7135 118.989 80.3525C131.764 69.2628 131.323 49.1075 152.628 47.467L152.609 47.4478Z" stroke="#FF5722" stroke-width="0.640927" stroke-linecap="round" stroke-linejoin="round"/>
<path d="M151.545 55.2759C164.732 54.2591 177.775 64.7828 179.586 77.8967C180.526 84.6886 178.791 91.6725 180.075 98.4069C181.877 107.866 189.266 115.214 197 120.951C204.724 126.678 213.301 131.571 219.377 139.024C225.463 146.478 228.463 157.597 223.374 165.761C218.448 173.665 207.685 176.409 202.846 184.371C194.987 197.313 207.158 215.233 200.488 228.826C197.124 235.695 189.314 239.714 181.676 239.791C174.038 239.868 166.668 236.453 160.745 231.618C153.759 225.919 148.162 218.043 139.709 214.907C125.947 209.813 111.486 219.175 97.1007 222.053C83.5495 224.768 68.3021 220.95 59.2743 210.474C50.2466 199.999 49.2403 182.721 58.6227 172.572C63.6924 167.094 71.4167 163.564 73.8318 156.494C76.8314 147.716 70.1229 138.986 65.1107 131.187C60.9515 124.721 57.6835 117.411 57.4918 109.717C57.3001 102.033 60.6927 93.9365 67.3245 90.0512C83.492 80.5636 105.285 98.8098 120.532 85.5808C132.311 75.3545 131.908 56.7821 151.535 55.2663L151.545 55.2759Z" stroke="#FF5722" stroke-width="0.606591" stroke-linecap="round" stroke-linejoin="round"/>
<path d="M150.481 63.104C162.547 62.1735 174.488 71.805 176.136 83.8061C176.989 90.0225 175.408 96.4115 176.577 102.58C178.226 111.233 184.992 117.967 192.064 123.205C199.137 128.443 206.976 132.923 212.544 139.744C218.112 146.565 220.863 156.743 216.205 164.216C211.701 171.449 201.849 173.963 197.421 181.244C190.224 193.082 201.37 209.486 195.265 221.929C192.189 228.212 185.039 231.896 178.043 231.963C171.047 232.03 164.31 228.913 158.896 224.49C152.503 219.271 147.376 212.067 139.642 209.199C127.049 204.536 113.814 213.103 100.656 215.741C88.2551 218.226 74.3014 214.734 66.0404 205.15C57.7794 195.567 56.8593 179.748 65.4462 170.461C70.0846 165.444 77.1477 162.221 79.3615 155.745C82.1024 147.716 75.969 139.725 71.388 132.587C67.5833 126.668 64.5837 119.982 64.4208 112.941C64.2483 105.909 67.3533 98.5029 73.4197 94.9438C88.2167 86.262 108.16 102.964 122.104 90.8475C132.876 81.4941 132.512 64.495 150.481 63.104Z" stroke="#FF5722" stroke-width="0.572256" stroke-linecap="round" stroke-linejoin="round"/>
<path d="M149.417 70.9321C160.362 70.0879 171.191 78.8273 172.696 89.7155C173.472 95.3467 172.034 101.151 173.098 106.743C174.593 114.591 180.727 120.702 187.148 125.46C193.569 130.218 200.68 134.276 205.73 140.463C210.781 146.651 213.273 155.88 209.046 162.662C204.954 169.224 196.022 171.507 192.007 178.117C185.48 188.861 195.591 203.74 190.052 215.022C187.253 220.72 180.775 224.058 174.43 224.126C168.086 224.183 161.972 221.353 157.055 217.343C151.257 212.604 146.609 206.071 139.585 203.472C128.161 199.241 116.153 207.021 104.212 209.41C92.9605 211.664 80.3006 208.498 72.8063 199.797C65.3119 191.096 64.4686 176.754 72.2696 168.332C76.4768 163.785 82.8882 160.849 84.8912 154.988C87.3829 147.706 81.8148 140.454 77.6556 133.978C74.2055 128.606 71.4837 122.543 71.3304 116.154C71.1771 109.775 73.9946 103.06 79.4956 99.8268C92.9126 91.9508 111.006 107.098 123.666 96.1142C133.441 87.6242 133.106 72.208 149.408 70.9513L149.417 70.9321Z" stroke="#FF5722" stroke-width="0.537921" stroke-linecap="round" stroke-linejoin="round"/>
<path d="M148.354 78.7602C158.186 78.0023 167.904 85.8495 169.255 95.625C169.955 100.681 168.661 105.89 169.62 110.907C170.961 117.958 176.472 123.436 182.232 127.705C187.991 131.974 194.383 135.619 198.917 141.173C203.45 146.728 205.692 155.016 201.897 161.098C198.227 166.989 190.205 169.042 186.602 174.97C180.746 184.611 189.812 197.975 184.848 208.105C182.337 213.218 176.52 216.221 170.827 216.278C165.134 216.336 159.643 213.794 155.225 210.187C150.021 205.937 145.843 200.066 139.546 197.735C129.292 193.936 118.51 200.92 107.796 203.059C97.6949 205.083 86.3288 202.234 79.6011 194.435C72.8735 186.626 72.1164 173.742 79.122 166.183C82.8979 162.096 88.6576 159.468 90.4593 154.201C92.6923 147.658 87.6993 141.154 83.9617 135.341C80.8662 130.515 78.4224 125.076 78.2786 119.339C78.1349 113.612 80.6649 107.578 85.61 104.681C97.6566 97.6108 113.901 111.214 125.267 101.343C134.045 93.7255 133.739 79.8826 148.373 78.7506L148.354 78.7602Z" stroke="#FF5722" stroke-width="0.503585" stroke-linecap="round" stroke-linejoin="round"/>
<path d="M147.29 86.5975C156.002 85.926 164.617 92.881 165.806 101.534C166.419 106.014 165.278 110.638 166.131 115.08C167.32 121.325 172.207 126.179 177.306 129.968C182.404 133.758 188.068 136.981 192.084 141.902C196.099 146.823 198.083 154.172 194.719 159.563C191.47 164.782 184.359 166.595 181.168 171.852C175.974 180.4 184.014 192.228 179.615 201.207C177.392 205.745 172.236 208.402 167.186 208.45C162.135 208.498 157.276 206.244 153.366 203.059C148.756 199.289 145.057 194.089 139.47 192.027C130.385 188.659 120.83 194.847 111.333 196.746C102.382 198.54 92.3188 196.017 86.3578 189.101C80.3968 182.184 79.726 170.768 85.9266 164.072C89.2712 160.455 94.3697 158.124 95.9701 153.452C97.9539 147.658 93.5263 141.893 90.2104 136.741C87.4695 132.472 85.3036 127.647 85.179 122.562C85.0544 117.488 87.297 112.144 91.6767 109.573C102.353 103.309 116.747 115.358 126.81 106.618C134.582 99.8649 134.324 87.5952 147.29 86.5975Z" stroke="#FF5722" stroke-width="0.46925" stroke-linecap="round" stroke-linejoin="round"/>
<path d="M146.226 94.4256C153.816 93.8404 161.32 99.8937 162.365 107.444C162.901 111.348 161.905 115.377 162.643 119.243C163.678 124.683 167.933 128.923 172.379 132.213C176.826 135.504 181.762 138.324 185.26 142.612C188.758 146.9 190.492 153.299 187.56 158C184.723 162.547 178.532 164.13 175.743 168.715C171.22 176.16 178.225 186.472 174.392 194.3C172.456 198.253 167.961 200.565 163.563 200.613C159.164 200.651 154.928 198.694 151.516 195.912C147.501 192.631 144.271 188.103 139.412 186.3C131.496 183.364 123.168 188.755 114.888 190.415C107.087 191.979 98.3177 189.782 93.1234 183.757C87.9291 177.733 87.3445 167.785 92.7496 161.942C95.663 158.786 100.11 156.762 101.499 152.695C103.224 147.649 99.3623 142.612 96.4872 138.132C94.0913 134.41 92.2129 130.199 92.0979 125.776C91.9925 121.354 93.938 116.701 97.7522 114.456C107.058 108.998 119.603 119.502 128.372 111.885C135.147 106.005 134.917 95.3082 146.216 94.4352L146.226 94.4256Z" stroke="#FF5722" stroke-width="0.434915" stroke-linecap="round" stroke-linejoin="round"/>
<path d="M145.153 102.254C151.622 101.755 158.023 106.916 158.905 113.353C159.365 116.682 158.512 120.116 159.145 123.416C160.026 128.059 163.658 131.666 167.444 134.477C171.239 137.288 175.437 139.686 178.427 143.341C181.407 146.996 182.883 152.455 180.391 156.465C177.976 160.34 172.696 161.693 170.319 165.597C166.466 171.948 172.437 180.736 169.159 187.412C167.511 190.78 163.678 192.756 159.93 192.794C156.183 192.833 152.57 191.154 149.666 188.784C146.236 185.983 143.495 182.127 139.345 180.592C132.598 178.088 125.497 182.683 118.443 184.103C111.792 185.436 104.317 183.566 99.8894 178.424C95.4618 173.282 94.9635 164.801 99.5732 159.822C102.065 157.136 105.85 155.4 107.029 151.937C108.495 147.629 105.208 143.341 102.755 139.523C100.714 136.348 99.1132 132.76 99.0173 128.99C98.9215 125.22 100.589 121.248 103.838 119.339C111.773 114.686 122.459 123.637 129.943 117.142C135.722 112.125 135.521 103.012 145.153 102.273V102.254Z" stroke="#FF5722" stroke-width="0.389134" stroke-linecap="round" stroke-linejoin="round"/>
<path d="M144.089 110.081C149.437 109.669 154.737 113.938 155.465 119.262C155.848 122.015 155.139 124.855 155.666 127.579C156.394 131.417 159.394 134.4 162.528 136.722C165.662 139.043 169.141 141.029 171.613 144.051C174.086 147.073 175.303 151.591 173.233 154.901C171.23 158.105 166.869 159.227 164.905 162.451C161.713 167.698 166.658 174.97 163.946 180.486C162.576 183.268 159.413 184.908 156.308 184.937C153.213 184.966 150.223 183.584 147.817 181.627C144.98 179.315 142.709 176.121 139.278 174.845C133.701 172.773 127.826 176.581 121.989 177.742C116.489 178.845 110.307 177.291 106.646 173.041C102.985 168.792 102.573 161.779 106.387 157.664C108.448 155.438 111.582 154.009 112.559 151.14C113.776 147.581 111.055 144.032 109.023 140.876C107.336 138.247 106.004 135.283 105.927 132.165C105.851 129.047 107.231 125.766 109.914 124.183C116.469 120.337 125.315 127.742 131.496 122.37C136.269 118.226 136.106 110.686 144.08 110.072L144.089 110.081Z" stroke="#FF5722" stroke-width="0.354799" stroke-linecap="round" stroke-linejoin="round"/>
<path d="M143.025 117.909C147.251 117.583 151.439 120.96 152.024 125.172C152.321 127.349 151.765 129.594 152.177 131.752C152.752 134.784 155.129 137.144 157.602 138.986C160.074 140.828 162.834 142.391 164.78 144.78C166.735 147.169 167.693 150.737 166.064 153.356C164.483 155.889 161.033 156.771 159.48 159.323C156.96 163.477 160.86 169.223 158.723 173.588C157.64 175.795 155.139 177.08 152.685 177.109C150.232 177.128 147.874 176.035 145.967 174.49C143.725 172.658 141.933 170.135 139.22 169.128C134.802 167.497 130.164 170.499 125.554 171.42C121.203 172.293 116.316 171.065 113.421 167.708C110.527 164.35 110.201 158.805 113.211 155.544C114.84 153.788 117.312 152.656 118.089 150.382C119.047 147.572 116.9 144.761 115.29 142.267C113.958 140.194 112.904 137.844 112.846 135.379C112.789 132.913 113.872 130.313 115.999 129.066C121.184 126.025 128.18 131.877 133.068 127.627C136.844 124.347 136.719 118.389 143.015 117.9L143.025 117.909Z" stroke="#FF5722" stroke-width="0.320463" stroke-linecap="round" stroke-linejoin="round"/>
<path d="M141.961 125.738C145.076 125.498 148.152 127.982 148.574 131.071C148.794 132.673 148.382 134.323 148.689 135.906C149.11 138.142 150.855 139.868 152.685 141.221C154.516 142.574 156.528 143.725 157.966 145.48C159.403 147.236 160.112 149.864 158.905 151.793C157.745 153.654 155.206 154.306 154.065 156.186C152.215 159.237 155.081 163.468 153.509 166.672C152.714 168.293 150.874 169.243 149.072 169.262C147.27 169.281 145.536 168.475 144.137 167.334C142.488 165.991 141.166 164.129 139.172 163.391C135.923 162.192 132.512 164.398 129.119 165.079C125.918 165.722 122.324 164.82 120.197 162.345C118.069 159.87 117.83 155.793 120.043 153.404C121.241 152.109 123.062 151.275 123.628 149.615C124.337 147.543 122.756 145.48 121.567 143.648C120.59 142.123 119.813 140.396 119.766 138.583C119.718 136.77 120.523 134.861 122.085 133.94C125.899 131.705 131.036 136.002 134.639 132.884C137.418 130.477 137.323 126.093 141.951 125.738H141.961Z" stroke="#FF5722" stroke-width="0.286128" stroke-linecap="round" stroke-linejoin="round"/>
</g>
<defs>
<clipPath id="clip0_1_34427">
<rect width="278" height="295" fill="white"/>
</clipPath>
</defs>
</svg>
