<svg width="184" height="177" viewBox="0 0 184 177" fill="none" xmlns="http://www.w3.org/2000/svg">
<path d="M4.84 128.33C3.4 128.33 2.23 129.51 2.23 130.96C2.23 132.41 3.4 133.59 4.84 133.59C6.28 133.59 7.45 132.41 7.45 130.96C7.45 129.51 6.28 128.33 4.84 128.33Z" fill="#FF5722"/>
<path d="M49.5 133.59C50.9415 133.59 52.11 132.413 52.11 130.96C52.11 129.507 50.9415 128.33 49.5 128.33C48.0585 128.33 46.89 129.507 46.89 130.96C46.89 132.413 48.0585 133.59 49.5 133.59Z" fill="#FF5722"/>
<path d="M27.17 128.33C25.73 128.33 24.56 129.51 24.56 130.96C24.56 132.41 25.73 133.59 27.17 133.59C28.61 133.59 29.78 132.41 29.78 130.96C29.78 129.51 28.61 128.33 27.17 128.33Z" fill="#FF5722"/>
<path d="M26.8 106.95C25.36 106.95 24.19 108.13 24.19 109.58C24.19 111.03 25.36 112.21 26.8 112.21C28.24 112.21 29.41 111.03 29.41 109.58C29.41 108.13 28.24 106.95 26.8 106.95Z" fill="#FF5722"/>
<path d="M4.47 106.95C3.03 106.95 1.86 108.13 1.86 109.58C1.86 111.03 3.03 112.21 4.47 112.21C5.91 112.21 7.08 111.03 7.08 109.58C7.08 108.13 5.91 106.95 4.47 106.95Z" fill="#FF5722"/>
<path d="M71.46 106.95C70.02 106.95 68.85 108.13 68.85 109.58C68.85 111.03 70.02 112.21 71.46 112.21C72.9 112.21 74.07 111.03 74.07 109.58C74.07 108.13 72.9 106.95 71.46 106.95Z" fill="#FF5722"/>
<path d="M49.13 106.95C47.69 106.95 46.52 108.13 46.52 109.58C46.52 111.03 47.69 112.21 49.13 112.21C50.57 112.21 51.74 111.03 51.74 109.58C51.74 108.13 50.57 106.95 49.13 106.95Z" fill="#FF5722"/>
<path d="M4.84 171.11C3.4 171.11 2.23 172.29 2.23 173.74C2.23 175.19 3.4 176.37 4.84 176.37C6.28 176.37 7.45 175.19 7.45 173.74C7.45 172.29 6.28 171.11 4.84 171.11Z" fill="#FF5722"/>
<path d="M26.8 149.72C25.36 149.72 24.19 150.9 24.19 152.35C24.19 153.8 25.36 154.98 26.8 154.98C28.24 154.98 29.41 153.8 29.41 152.35C29.41 150.9 28.24 149.72 26.8 149.72Z" fill="#FF5722"/>
<path d="M4.47 149.72C3.03 149.72 1.86 150.9 1.86 152.35C1.86 153.8 3.03 154.98 4.47 154.98C5.91 154.98 7.08 153.8 7.08 152.35C7.08 150.9 5.91 149.72 4.47 149.72Z" fill="#FF5722"/>
<path d="M93.42 85.56C91.98 85.56 90.81 86.74 90.81 88.19C90.81 89.64 91.98 90.82 93.42 90.82C94.86 90.82 96.03 89.64 96.03 88.19C96.03 86.74 94.86 85.56 93.42 85.56Z" fill="#FF5722"/>
<path d="M48.76 85.56C47.32 85.56 46.15 86.74 46.15 88.19C46.15 89.64 47.32 90.82 48.76 90.82C50.2 90.82 51.37 89.64 51.37 88.19C51.37 86.74 50.2 85.56 48.76 85.56Z" fill="#FF5722"/>
<path d="M71.09 90.82C72.5315 90.82 73.7 89.6425 73.7 88.19C73.7 86.7375 72.5315 85.56 71.09 85.56C69.6485 85.56 68.48 86.7375 68.48 88.19C68.48 89.6425 69.6485 90.82 71.09 90.82Z" fill="#FF5722"/>
<path d="M26.42 85.56C24.98 85.56 23.81 86.74 23.81 88.19C23.81 89.64 24.98 90.82 26.42 90.82C27.86 90.82 29.03 89.64 29.03 88.19C29.03 86.74 27.87 85.56 26.42 85.56Z" fill="#FF5722"/>
<path d="M4.09 85.56C2.65 85.56 1.48 86.74 1.48 88.19C1.48 89.64 2.65 90.82 4.09 90.82C5.53 90.82 6.7 89.64 6.7 88.19C6.7 86.74 5.53 85.56 4.09 85.56Z" fill="#FF5722"/>
<path d="M93.04 64.17C91.6 64.17 90.43 65.35 90.43 66.8C90.43 68.25 91.6 69.43 93.04 69.43C94.48 69.43 95.65 68.25 95.65 66.8C95.65 65.35 94.48 64.17 93.04 64.17Z" fill="#FF5722"/>
<path d="M70.71 64.17C69.27 64.17 68.1 65.35 68.1 66.8C68.1 68.25 69.27 69.43 70.71 69.43C72.15 69.43 73.32 68.25 73.32 66.8C73.32 65.35 72.15 64.17 70.71 64.17Z" fill="#FF5722"/>
<path d="M48.38 64.17C46.94 64.17 45.77 65.35 45.77 66.8C45.77 68.25 46.94 69.43 48.38 69.43C49.82 69.43 50.99 68.25 50.99 66.8C50.99 65.35 49.82 64.17 48.38 64.17Z" fill="#FF5722"/>
<path d="M115.38 64.17C113.94 64.17 112.77 65.35 112.77 66.8C112.77 68.25 113.94 69.43 115.38 69.43C116.82 69.43 117.99 68.25 117.99 66.8C117.99 65.35 116.82 64.17 115.38 64.17Z" fill="#FF5722"/>
<path d="M3.72 64.17C2.28 64.17 1.11 65.35 1.11 66.8C1.11 68.25 2.28 69.43 3.72 69.43C5.16 69.43 6.33 68.25 6.33 66.8C6.33 65.35 5.16 64.17 3.72 64.17Z" fill="#FF5722"/>
<path d="M26.05 64.17C24.61 64.17 23.44 65.35 23.44 66.8C23.44 68.25 24.61 69.43 26.05 69.43C27.49 69.43 28.66 68.25 28.66 66.8C28.66 65.35 27.49 64.17 26.05 64.17Z" fill="#FF5722"/>
<path d="M3.35 42.78C1.91 42.78 0.74 43.96 0.74 45.41C0.74 46.86 1.91 48.04 3.35 48.04C4.79 48.04 5.96 46.86 5.96 45.41C5.96 43.96 4.79 42.78 3.35 42.78Z" fill="#FF5722"/>
<path d="M92.67 48.04C94.1115 48.04 95.28 46.8625 95.28 45.41C95.28 43.9575 94.1115 42.78 92.67 42.78C91.2285 42.78 90.06 43.9575 90.06 45.41C90.06 46.8625 91.2285 48.04 92.67 48.04Z" fill="#FF5722"/>
<path d="M137.33 48.04C138.771 48.04 139.94 46.8625 139.94 45.41C139.94 43.9575 138.771 42.78 137.33 42.78C135.889 42.78 134.72 43.9575 134.72 45.41C134.72 46.8625 135.889 48.04 137.33 48.04Z" fill="#FF5722"/>
<path d="M70.34 42.78C68.9 42.78 67.73 43.96 67.73 45.41C67.73 46.86 68.9 48.04 70.34 48.04C71.78 48.04 72.95 46.86 72.95 45.41C72.95 43.96 71.78 42.78 70.34 42.78Z" fill="#FF5722"/>
<path d="M48.01 42.78C46.57 42.78 45.4 43.96 45.4 45.41C45.4 46.86 46.57 48.04 48.01 48.04C49.45 48.04 50.62 46.86 50.62 45.41C50.62 43.96 49.45 42.78 48.01 42.78Z" fill="#FF5722"/>
<path d="M25.68 42.78C24.24 42.78 23.07 43.96 23.07 45.41C23.07 46.86 24.24 48.04 25.68 48.04C27.12 48.04 28.29 46.86 28.29 45.41C28.29 43.96 27.12 42.78 25.68 42.78Z" fill="#FF5722"/>
<path d="M115 42.78C113.56 42.78 112.39 43.96 112.39 45.41C112.39 46.86 113.56 48.04 115 48.04C116.44 48.04 117.61 46.86 117.61 45.41C117.61 43.96 116.44 42.78 115 42.78Z" fill="#FF5722"/>
<path d="M2.98 26.65C4.42146 26.65 5.59 25.4725 5.59 24.02C5.59 22.5675 4.42146 21.39 2.98 21.39C1.53854 21.39 0.37 22.5675 0.37 24.02C0.37 25.4725 1.53854 26.65 2.98 26.65Z" fill="#FF5722"/>
<path d="M114.63 21.4C113.19 21.4 112.02 22.58 112.02 24.03C112.02 25.48 113.19 26.66 114.63 26.66C116.07 26.66 117.24 25.48 117.24 24.03C117.24 22.58 116.07 21.4 114.63 21.4Z" fill="#FF5722"/>
<path d="M25.31 21.4C23.87 21.4 22.7 22.58 22.7 24.03C22.7 25.48 23.87 26.66 25.31 26.66C26.75 26.66 27.92 25.48 27.92 24.03C27.92 22.58 26.75 21.4 25.31 21.4Z" fill="#FF5722"/>
<path d="M69.97 21.4C68.53 21.4 67.36 22.58 67.36 24.03C67.36 25.48 68.53 26.66 69.97 26.66C71.41 26.66 72.58 25.48 72.58 24.03C72.58 22.58 71.41 21.4 69.97 21.4Z" fill="#FF5722"/>
<path d="M47.64 21.4C46.2 21.4 45.03 22.58 45.03 24.03C45.03 25.48 46.2 26.66 47.64 26.66C49.08 26.66 50.25 25.48 50.25 24.03C50.25 22.58 49.08 21.4 47.64 21.4Z" fill="#FF5722"/>
<path d="M92.3 21.4C90.86 21.4 89.69 22.58 89.69 24.03C89.69 25.48 90.86 26.66 92.3 26.66C93.74 26.66 94.91 25.48 94.91 24.03C94.91 22.58 93.74 21.4 92.3 21.4Z" fill="#FF5722"/>
<path d="M159.29 21.4C157.85 21.4 156.68 22.58 156.68 24.03C156.68 25.48 157.85 26.66 159.29 26.66C160.73 26.66 161.9 25.48 161.9 24.03C161.9 22.58 160.74 21.4 159.29 21.4Z" fill="#FF5722"/>
<path d="M136.96 21.4C135.52 21.4 134.35 22.58 134.35 24.03C134.35 25.48 135.52 26.66 136.96 26.66C138.4 26.66 139.57 25.48 139.57 24.03C139.57 22.58 138.41 21.4 136.96 21.4Z" fill="#FF5722"/>
<path d="M24.94 5.26C26.38 5.26 27.55 4.08 27.55 2.63C27.55 1.18 26.38 0 24.94 0C23.5 0 22.33 1.18 22.33 2.63C22.33 4.08 23.5 5.26 24.94 5.26Z" fill="#FF5722"/>
<path d="M2.61 5.26C4.05 5.26 5.22 4.08 5.22 2.63C5.22 1.18 4.04 0.01 2.61 0.01C1.18 0.01 0 1.19 0 2.64C0 4.09 1.17 5.27 2.61 5.27V5.26Z" fill="#FF5722"/>
<path d="M158.92 5.27C160.361 5.27 161.53 4.09251 161.53 2.64C161.53 1.18749 160.361 0.01 158.92 0.01C157.479 0.01 156.31 1.18749 156.31 2.64C156.31 4.09251 157.479 5.27 158.92 5.27Z" fill="#FF5722"/>
<path d="M91.93 5.26C93.37 5.26 94.54 4.08 94.54 2.63C94.54 1.18 93.37 0 91.93 0C90.49 0 89.32 1.18 89.32 2.63C89.32 4.08 90.49 5.26 91.93 5.26Z" fill="#FF5722"/>
<path d="M114.26 5.26C115.7 5.26 116.87 4.08 116.87 2.63C116.87 1.18 115.7 0 114.26 0C112.82 0 111.65 1.18 111.65 2.63C111.65 4.08 112.82 5.26 114.26 5.26Z" fill="#FF5722"/>
<path d="M136.59 5.26C138.03 5.26 139.2 4.08 139.2 2.63C139.2 1.18 138.03 0 136.59 0C135.15 0 133.98 1.18 133.98 2.63C133.98 4.08 135.15 5.26 136.59 5.26Z" fill="#FF5722"/>
<path d="M47.27 5.26C48.71 5.26 49.88 4.08 49.88 2.63C49.88 1.18 48.71 0 47.27 0C45.83 0 44.66 1.18 44.66 2.63C44.66 4.08 45.83 5.26 47.27 5.26Z" fill="#FF5722"/>
<path d="M181.25 5.26C182.69 5.26 183.86 4.08 183.86 2.63C183.86 1.18 182.7 0 181.25 0C179.8 0 178.64 1.18 178.64 2.63C178.64 4.08 179.81 5.26 181.25 5.26Z" fill="#FF5722"/>
<path d="M69.6 5.26C71.04 5.26 72.21 4.08 72.21 2.63C72.21 1.18 71.04 0 69.6 0C68.16 0 66.99 1.18 66.99 2.63C66.99 4.08 68.16 5.26 69.6 5.26Z" fill="#FF5722"/>
</svg>
